<svg width="367" height="464" viewBox="0 0 367 464" fill="none" xmlns="http://www.w3.org/2000/svg">
<path fill-rule="evenodd" clip-rule="evenodd" d="M27.5864 85.2577C58.8476 35.8591 112.015 4.43769 171.064 0.40831C210.575 -2.26503 251.585 8.27333 284.149 29.5438C316.949 50.9693 341.185 80.6472 355.118 116.408C373.077 162.63 370.591 215.128 348.25 259.567C340.711 274.561 333.567 285.138 321.568 299.086C320.225 300.675 291.846 336.9 258.572 379.557C222.337 426.012 197.194 457.898 195.891 459.06C188.55 465.647 178.445 465.647 171.104 459.06C169.801 457.898 144.658 426.012 108.423 379.557C75.1491 336.9 46.7694 300.675 45.4274 299.086C33.4281 285.138 26.2839 274.561 18.7449 259.567C-1.06965 220.164 -5.33253 174.795 6.70617 131.906C11.2454 115.749 18.4291 99.7093 27.5864 85.2577ZM183.5 289C242.318 289 290 237.065 290 173C290 108.935 242.318 57 183.5 57C124.682 57 77 108.935 77 173C77 237.065 124.682 289 183.5 289Z" fill="#EA801F"/>
</svg>
