<svg width="156" height="201" viewBox="0 0 156 201" fill="none" xmlns="http://www.w3.org/2000/svg">
<rect width="156" height="201" rx="8" fill="url(#paint0_linear_700_429)"/>
<path d="M21.62 31.2C20.2467 31.2 19.1533 30.78 18.34 29.94C17.5267 29.0867 17.08 27.9267 17 26.46C16.9867 26.2867 16.98 26.0667 16.98 25.8C16.98 25.52 16.9867 25.2933 17 25.12C17.0533 24.1733 17.2733 23.3467 17.66 22.64C18.0467 21.92 18.5733 21.3667 19.24 20.98C19.92 20.5933 20.7133 20.4 21.62 20.4C22.6333 20.4 23.48 20.6133 24.16 21.04C24.8533 21.4667 25.38 22.0733 25.74 22.86C26.1 23.6467 26.28 24.5667 26.28 25.62V25.96C26.28 26.1067 26.2333 26.22 26.14 26.3C26.06 26.38 25.9533 26.42 25.82 26.42H18.9C18.9 26.4333 18.9 26.46 18.9 26.5C18.9 26.54 18.9 26.5733 18.9 26.6C18.9267 27.1467 19.0467 27.66 19.26 28.14C19.4733 28.6067 19.78 28.9867 20.18 29.28C20.58 29.5733 21.06 29.72 21.62 29.72C22.1 29.72 22.5 29.6467 22.82 29.5C23.14 29.3533 23.4 29.1933 23.6 29.02C23.8 28.8333 23.9333 28.6933 24 28.6C24.12 28.4267 24.2133 28.3267 24.28 28.3C24.3467 28.26 24.4533 28.24 24.6 28.24H25.56C25.6933 28.24 25.8 28.28 25.88 28.36C25.9733 28.4267 26.0133 28.5267 26 28.66C25.9867 28.86 25.88 29.1067 25.68 29.4C25.48 29.68 25.1933 29.96 24.82 30.24C24.4467 30.52 23.9933 30.7533 23.46 30.94C22.9267 31.1133 22.3133 31.2 21.62 31.2ZM18.9 25.04H24.38V24.98C24.38 24.38 24.2667 23.8467 24.04 23.38C23.8267 22.9133 23.5133 22.5467 23.1 22.28C22.6867 22 22.1933 21.86 21.62 21.86C21.0467 21.86 20.5533 22 20.14 22.28C19.74 22.5467 19.4333 22.9133 19.22 23.38C19.0067 23.8467 18.9 24.38 18.9 24.98V25.04ZM32.8714 31.2C31.9247 31.2 31.1047 31.02 30.4114 30.66C29.7314 30.2867 29.2047 29.76 28.8314 29.08C28.4581 28.3867 28.2581 27.56 28.2314 26.6C28.2181 26.4 28.2114 26.1333 28.2114 25.8C28.2114 25.4667 28.2181 25.2 28.2314 25C28.2581 24.04 28.4581 23.22 28.8314 22.54C29.2047 21.8467 29.7314 21.32 30.4114 20.96C31.1047 20.5867 31.9247 20.4 32.8714 20.4C33.6447 20.4 34.3047 20.5067 34.8514 20.72C35.4114 20.9333 35.8714 21.2067 36.2314 21.54C36.5914 21.8733 36.8581 22.2333 37.0314 22.62C37.2181 23.0067 37.3181 23.3733 37.3314 23.72C37.3447 23.8533 37.3047 23.96 37.2114 24.04C37.1181 24.12 37.0047 24.16 36.8714 24.16H35.9114C35.7781 24.16 35.6781 24.1333 35.6114 24.08C35.5447 24.0133 35.4781 23.9067 35.4114 23.76C35.1714 23.1067 34.8447 22.6467 34.4314 22.38C34.0181 22.1133 33.5047 21.98 32.8914 21.98C32.0914 21.98 31.4381 22.2267 30.9314 22.72C30.4381 23.2133 30.1714 24.0067 30.1314 25.1C30.1181 25.58 30.1181 26.0467 30.1314 26.5C30.1714 27.6067 30.4381 28.4067 30.9314 28.9C31.4381 29.38 32.0914 29.62 32.8914 29.62C33.5047 29.62 34.0181 29.4867 34.4314 29.22C34.8447 28.9533 35.1714 28.4933 35.4114 27.84C35.4781 27.6933 35.5447 27.5933 35.6114 27.54C35.6781 27.4733 35.7781 27.44 35.9114 27.44H36.8714C37.0047 27.44 37.1181 27.48 37.2114 27.56C37.3047 27.64 37.3447 27.7467 37.3314 27.88C37.3181 28.16 37.2581 28.4467 37.1514 28.74C37.0447 29.0333 36.8714 29.3333 36.6314 29.64C36.4047 29.9333 36.1181 30.2 35.7714 30.44C35.4247 30.6667 35.0047 30.8533 34.5114 31C34.0314 31.1333 33.4847 31.2 32.8714 31.2ZM43.9666 31.2C42.9532 31.2 42.1066 31.0067 41.4266 30.62C40.7466 30.2333 40.2266 29.7 39.8666 29.02C39.5066 28.3267 39.3066 27.54 39.2666 26.66C39.2532 26.4333 39.2466 26.1467 39.2466 25.8C39.2466 25.44 39.2532 25.1533 39.2666 24.94C39.3066 24.0467 39.5066 23.26 39.8666 22.58C40.2399 21.9 40.7666 21.3667 41.4466 20.98C42.1266 20.5933 42.9666 20.4 43.9666 20.4C44.9666 20.4 45.8066 20.5933 46.4866 20.98C47.1666 21.3667 47.6866 21.9 48.0466 22.58C48.4199 23.26 48.6266 24.0467 48.6666 24.94C48.6799 25.1533 48.6866 25.44 48.6866 25.8C48.6866 26.1467 48.6799 26.4333 48.6666 26.66C48.6266 27.54 48.4266 28.3267 48.0666 29.02C47.7066 29.7 47.1866 30.2333 46.5066 30.62C45.8266 31.0067 44.9799 31.2 43.9666 31.2ZM43.9666 29.66C44.7932 29.66 45.4532 29.4 45.9466 28.88C46.4399 28.3467 46.7066 27.5733 46.7466 26.56C46.7599 26.36 46.7666 26.1067 46.7666 25.8C46.7666 25.4933 46.7599 25.24 46.7466 25.04C46.7066 24.0267 46.4399 23.26 45.9466 22.74C45.4532 22.2067 44.7932 21.94 43.9666 21.94C43.1399 21.94 42.4732 22.2067 41.9666 22.74C41.4732 23.26 41.2132 24.0267 41.1866 25.04C41.1732 25.24 41.1666 25.4933 41.1666 25.8C41.1666 26.1067 41.1732 26.36 41.1866 26.56C41.2132 27.5733 41.4732 28.3467 41.9666 28.88C42.4732 29.4 43.1399 29.66 43.9666 29.66ZM55.1533 31C54.4066 31 53.7999 30.86 53.3333 30.58C52.8666 30.2867 52.5266 29.88 52.3133 29.36C52.0999 28.8267 51.9933 28.2 51.9933 27.48V22.2H50.4333C50.2999 22.2 50.1866 22.16 50.0933 22.08C50.0133 21.9867 49.9733 21.8733 49.9733 21.74V21.06C49.9733 20.9267 50.0133 20.82 50.0933 20.74C50.1866 20.6467 50.2999 20.6 50.4333 20.6H51.9933V17.26C51.9933 17.1267 52.0333 17.02 52.1133 16.94C52.2066 16.8467 52.3199 16.8 52.4533 16.8H53.3933C53.5266 16.8 53.6333 16.8467 53.7133 16.94C53.8066 17.02 53.8533 17.1267 53.8533 17.26V20.6H56.3333C56.4666 20.6 56.5733 20.6467 56.6533 20.74C56.7466 20.82 56.7933 20.9267 56.7933 21.06V21.74C56.7933 21.8733 56.7466 21.9867 56.6533 22.08C56.5733 22.16 56.4666 22.2 56.3333 22.2H53.8533V27.34C53.8533 27.9667 53.9599 28.46 54.1733 28.82C54.3866 29.18 54.7666 29.36 55.3133 29.36H56.5333C56.6666 29.36 56.7733 29.4067 56.8533 29.5C56.9466 29.58 56.9933 29.6867 56.9933 29.82V30.54C56.9933 30.6733 56.9466 30.7867 56.8533 30.88C56.7733 30.96 56.6666 31 56.5333 31H55.1533ZM63.1658 31.2C62.1524 31.2 61.3058 31.0067 60.6258 30.62C59.9458 30.2333 59.4258 29.7 59.0658 29.02C58.7058 28.3267 58.5058 27.54 58.4658 26.66C58.4524 26.4333 58.4458 26.1467 58.4458 25.8C58.4458 25.44 58.4524 25.1533 58.4658 24.94C58.5058 24.0467 58.7058 23.26 59.0658 22.58C59.4391 21.9 59.9658 21.3667 60.6458 20.98C61.3258 20.5933 62.1658 20.4 63.1658 20.4C64.1658 20.4 65.0058 20.5933 65.6858 20.98C66.3658 21.3667 66.8858 21.9 67.2458 22.58C67.6191 23.26 67.8258 24.0467 67.8658 24.94C67.8791 25.1533 67.8858 25.44 67.8858 25.8C67.8858 26.1467 67.8791 26.4333 67.8658 26.66C67.8258 27.54 67.6258 28.3267 67.2658 29.02C66.9058 29.7 66.3858 30.2333 65.7058 30.62C65.0258 31.0067 64.1791 31.2 63.1658 31.2ZM63.1658 29.66C63.9924 29.66 64.6524 29.4 65.1458 28.88C65.6391 28.3467 65.9058 27.5733 65.9458 26.56C65.9591 26.36 65.9658 26.1067 65.9658 25.8C65.9658 25.4933 65.9591 25.24 65.9458 25.04C65.9058 24.0267 65.6391 23.26 65.1458 22.74C64.6524 22.2067 63.9924 21.94 63.1658 21.94C62.3391 21.94 61.6724 22.2067 61.1658 22.74C60.6724 23.26 60.4124 24.0267 60.3858 25.04C60.3724 25.24 60.3658 25.4933 60.3658 25.8C60.3658 26.1067 60.3724 26.36 60.3858 26.56C60.4124 27.5733 60.6724 28.3467 61.1658 28.88C61.6724 29.4 62.3391 29.66 63.1658 29.66ZM74.2702 31.2C73.4168 31.2 72.6902 31.0133 72.0902 30.64C71.5035 30.2533 71.0568 29.72 70.7502 29.04C70.4435 28.36 70.2902 27.58 70.2902 26.7V21.06C70.2902 20.9267 70.3302 20.82 70.4102 20.74C70.5035 20.6467 70.6168 20.6 70.7502 20.6H71.7502C71.8835 20.6 71.9902 20.6467 72.0702 20.74C72.1635 20.82 72.2102 20.9267 72.2102 21.06V26.6C72.2102 28.5867 73.0768 29.58 74.8102 29.58C75.6368 29.58 76.2968 29.32 76.7902 28.8C77.2968 28.2667 77.5502 27.5333 77.5502 26.6V21.06C77.5502 20.9267 77.5902 20.82 77.6702 20.74C77.7635 20.6467 77.8768 20.6 78.0102 20.6H78.9902C79.1368 20.6 79.2502 20.6467 79.3302 20.74C79.4102 20.82 79.4502 20.9267 79.4502 21.06V30.54C79.4502 30.6733 79.4102 30.7867 79.3302 30.88C79.2502 30.96 79.1368 31 78.9902 31H78.0702C77.9368 31 77.8235 30.96 77.7302 30.88C77.6502 30.7867 77.6102 30.6733 77.6102 30.54V29.66C77.2502 30.1267 76.8102 30.5 76.2902 30.78C75.7835 31.06 75.1102 31.2 74.2702 31.2ZM82.8814 31C82.7481 31 82.6347 30.96 82.5414 30.88C82.4614 30.7867 82.4214 30.6733 82.4214 30.54V21.08C82.4214 20.9467 82.4614 20.8333 82.5414 20.74C82.6347 20.6467 82.7481 20.6 82.8814 20.6H83.8014C83.9347 20.6 84.0481 20.6467 84.1414 20.74C84.2347 20.8333 84.2814 20.9467 84.2814 21.08V21.96C84.5481 21.5067 84.9147 21.1667 85.3814 20.94C85.8481 20.7133 86.4081 20.6 87.0614 20.6H87.8614C87.9947 20.6 88.1014 20.6467 88.1814 20.74C88.2614 20.82 88.3014 20.9267 88.3014 21.06V21.88C88.3014 22.0133 88.2614 22.12 88.1814 22.2C88.1014 22.28 87.9947 22.32 87.8614 22.32H86.6614C85.9414 22.32 85.3747 22.5333 84.9614 22.96C84.5481 23.3733 84.3414 23.94 84.3414 24.66V30.54C84.3414 30.6733 84.2947 30.7867 84.2014 30.88C84.1081 30.96 83.9947 31 83.8614 31H82.8814Z" fill="black"/>
<path d="M17.1 45C17.0267 45 16.97 44.98 16.93 44.94C16.89 44.8933 16.87 44.8367 16.87 44.77V38.24C16.87 38.1667 16.89 38.11 16.93 38.07C16.97 38.0233 17.0267 38 17.1 38H19.64C20.1333 38 20.56 38.08 20.92 38.24C21.2867 38.4 21.57 38.64 21.77 38.96C21.97 39.2733 22.07 39.6667 22.07 40.14C22.07 40.6133 21.97 41.0067 21.77 41.32C21.57 41.6333 21.2867 41.87 20.92 42.03C20.56 42.19 20.1333 42.27 19.64 42.27H17.87V44.77C17.87 44.8367 17.8467 44.8933 17.8 44.94C17.76 44.98 17.7033 45 17.63 45H17.1ZM17.86 41.43H19.59C20.0833 41.43 20.4533 41.32 20.7 41.1C20.9467 40.88 21.07 40.56 21.07 40.14C21.07 39.7267 20.95 39.4067 20.71 39.18C20.47 38.9533 20.0967 38.84 19.59 38.84H17.86V41.43ZM24.5084 45.1C24.175 45.1 23.8717 45.0333 23.5984 44.9C23.325 44.7667 23.105 44.5867 22.9384 44.36C22.7717 44.1333 22.6884 43.8767 22.6884 43.59C22.6884 43.13 22.875 42.7633 23.2484 42.49C23.6217 42.2167 24.1084 42.0367 24.7084 41.95L26.1984 41.74V41.45C26.1984 41.13 26.105 40.88 25.9184 40.7C25.7384 40.52 25.4417 40.43 25.0284 40.43C24.7284 40.43 24.485 40.49 24.2984 40.61C24.1184 40.73 23.9917 40.8833 23.9184 41.07C23.8784 41.17 23.8084 41.22 23.7084 41.22H23.2584C23.185 41.22 23.1284 41.2 23.0884 41.16C23.055 41.1133 23.0384 41.06 23.0384 41C23.0384 40.9 23.075 40.7767 23.1484 40.63C23.2284 40.4833 23.3484 40.34 23.5084 40.2C23.6684 40.06 23.8717 39.9433 24.1184 39.85C24.3717 39.75 24.6784 39.7 25.0384 39.7C25.4384 39.7 25.775 39.7533 26.0484 39.86C26.3217 39.96 26.535 40.0967 26.6884 40.27C26.8484 40.4433 26.9617 40.64 27.0284 40.86C27.1017 41.08 27.1384 41.3033 27.1384 41.53V44.77C27.1384 44.8367 27.115 44.8933 27.0684 44.94C27.0284 44.98 26.975 45 26.9084 45H26.4484C26.375 45 26.3184 44.98 26.2784 44.94C26.2384 44.8933 26.2184 44.8367 26.2184 44.77V44.34C26.1317 44.46 26.015 44.58 25.8684 44.7C25.7217 44.8133 25.5384 44.91 25.3184 44.99C25.0984 45.0633 24.8284 45.1 24.5084 45.1ZM24.7184 44.35C24.9917 44.35 25.2417 44.2933 25.4684 44.18C25.695 44.06 25.8717 43.8767 25.9984 43.63C26.1317 43.3833 26.1984 43.0733 26.1984 42.7V42.42L25.0384 42.59C24.565 42.6567 24.2084 42.77 23.9684 42.93C23.7284 43.0833 23.6084 43.28 23.6084 43.52C23.6084 43.7067 23.6617 43.8633 23.7684 43.99C23.8817 44.11 24.0217 44.2 24.1884 44.26C24.3617 44.32 24.5384 44.35 24.7184 44.35ZM30.3759 45.1C30.0026 45.1 29.6826 45.0533 29.4159 44.96C29.1493 44.8667 28.9326 44.7533 28.7659 44.62C28.5993 44.4867 28.4726 44.3533 28.3859 44.22C28.3059 44.0867 28.2626 43.98 28.2559 43.9C28.2493 43.8267 28.2726 43.77 28.3259 43.73C28.3793 43.69 28.4326 43.67 28.4859 43.67H28.9259C28.9659 43.67 28.9959 43.6767 29.0159 43.69C29.0426 43.6967 29.0759 43.7233 29.1159 43.77C29.2026 43.8633 29.2993 43.9567 29.4059 44.05C29.5126 44.1433 29.6426 44.22 29.7959 44.28C29.9559 44.34 30.1526 44.37 30.3859 44.37C30.7259 44.37 31.0059 44.3067 31.2259 44.18C31.4459 44.0467 31.5559 43.8533 31.5559 43.6C31.5559 43.4333 31.5093 43.3 31.4159 43.2C31.3293 43.1 31.1693 43.01 30.9359 42.93C30.7093 42.85 30.3959 42.7667 29.9959 42.68C29.5959 42.5867 29.2793 42.4733 29.0459 42.34C28.8126 42.2 28.6459 42.0367 28.5459 41.85C28.4459 41.6567 28.3959 41.44 28.3959 41.2C28.3959 40.9533 28.4693 40.7167 28.6159 40.49C28.7626 40.2567 28.9759 40.0667 29.2559 39.92C29.5426 39.7733 29.8993 39.7 30.3259 39.7C30.6726 39.7 30.9693 39.7433 31.2159 39.83C31.4626 39.9167 31.6659 40.0267 31.8259 40.16C31.9859 40.2867 32.1059 40.4133 32.1859 40.54C32.2659 40.6667 32.3093 40.7733 32.3159 40.86C32.3226 40.9267 32.3026 40.9833 32.2559 41.03C32.2093 41.07 32.1559 41.09 32.0959 41.09H31.6759C31.6293 41.09 31.5893 41.08 31.5559 41.06C31.5293 41.04 31.5026 41.0167 31.4759 40.99C31.4093 40.9033 31.3293 40.8167 31.2359 40.73C31.1493 40.6433 31.0326 40.5733 30.8859 40.52C30.7459 40.46 30.5593 40.43 30.3259 40.43C29.9926 40.43 29.7426 40.5 29.5759 40.64C29.4093 40.78 29.3259 40.9567 29.3259 41.17C29.3259 41.2967 29.3626 41.41 29.4359 41.51C29.5093 41.61 29.6493 41.7 29.8559 41.78C30.0626 41.86 30.3693 41.9467 30.7759 42.04C31.2159 42.1267 31.5626 42.2433 31.8159 42.39C32.0693 42.5367 32.2493 42.7067 32.3559 42.9C32.4626 43.0933 32.5159 43.3167 32.5159 43.57C32.5159 43.85 32.4326 44.1067 32.2659 44.34C32.1059 44.5733 31.8659 44.76 31.5459 44.9C31.2326 45.0333 30.8426 45.1 30.3759 45.1ZM35.4736 45.1C35.1003 45.1 34.7803 45.0533 34.5136 44.96C34.2469 44.8667 34.0303 44.7533 33.8636 44.62C33.6969 44.4867 33.5703 44.3533 33.4836 44.22C33.4036 44.0867 33.3603 43.98 33.3536 43.9C33.3469 43.8267 33.3703 43.77 33.4236 43.73C33.4769 43.69 33.5303 43.67 33.5836 43.67H34.0236C34.0636 43.67 34.0936 43.6767 34.1136 43.69C34.1403 43.6967 34.1736 43.7233 34.2136 43.77C34.3003 43.8633 34.3969 43.9567 34.5036 44.05C34.6103 44.1433 34.7403 44.22 34.8936 44.28C35.0536 44.34 35.2503 44.37 35.4836 44.37C35.8236 44.37 36.1036 44.3067 36.3236 44.18C36.5436 44.0467 36.6536 43.8533 36.6536 43.6C36.6536 43.4333 36.6069 43.3 36.5136 43.2C36.4269 43.1 36.2669 43.01 36.0336 42.93C35.8069 42.85 35.4936 42.7667 35.0936 42.68C34.6936 42.5867 34.3769 42.4733 34.1436 42.34C33.9103 42.2 33.7436 42.0367 33.6436 41.85C33.5436 41.6567 33.4936 41.44 33.4936 41.2C33.4936 40.9533 33.5669 40.7167 33.7136 40.49C33.8603 40.2567 34.0736 40.0667 34.3536 39.92C34.6403 39.7733 34.9969 39.7 35.4236 39.7C35.7703 39.7 36.0669 39.7433 36.3136 39.83C36.5603 39.9167 36.7636 40.0267 36.9236 40.16C37.0836 40.2867 37.2036 40.4133 37.2836 40.54C37.3636 40.6667 37.4069 40.7733 37.4136 40.86C37.4203 40.9267 37.4003 40.9833 37.3536 41.03C37.3069 41.07 37.2536 41.09 37.1936 41.09H36.7736C36.7269 41.09 36.6869 41.08 36.6536 41.06C36.6269 41.04 36.6003 41.0167 36.5736 40.99C36.5069 40.9033 36.4269 40.8167 36.3336 40.73C36.2469 40.6433 36.1303 40.5733 35.9836 40.52C35.8436 40.46 35.6569 40.43 35.4236 40.43C35.0903 40.43 34.8403 40.5 34.6736 40.64C34.5069 40.78 34.4236 40.9567 34.4236 41.17C34.4236 41.2967 34.4603 41.41 34.5336 41.51C34.6069 41.61 34.7469 41.7 34.9536 41.78C35.1603 41.86 35.4669 41.9467 35.8736 42.04C36.3136 42.1267 36.6603 42.2433 36.9136 42.39C37.1669 42.5367 37.3469 42.7067 37.4536 42.9C37.5603 43.0933 37.6136 43.3167 37.6136 43.57C37.6136 43.85 37.5303 44.1067 37.3636 44.34C37.2036 44.5733 36.9636 44.76 36.6436 44.9C36.3303 45.0333 35.9403 45.1 35.4736 45.1ZM40.8413 45.1C40.1546 45.1 39.6079 44.89 39.2013 44.47C38.7946 44.0433 38.5713 43.4633 38.5313 42.73C38.5246 42.6433 38.5213 42.5333 38.5213 42.4C38.5213 42.26 38.5246 42.1467 38.5313 42.06C38.5579 41.5867 38.6679 41.1733 38.8613 40.82C39.0546 40.46 39.3179 40.1833 39.6513 39.99C39.9913 39.7967 40.3879 39.7 40.8413 39.7C41.3479 39.7 41.7713 39.8067 42.1113 40.02C42.4579 40.2333 42.7213 40.5367 42.9013 40.93C43.0813 41.3233 43.1712 41.7833 43.1712 42.31V42.48C43.1712 42.5533 43.1479 42.61 43.1013 42.65C43.0613 42.69 43.0079 42.71 42.9413 42.71H39.4813C39.4813 42.7167 39.4813 42.73 39.4813 42.75C39.4813 42.77 39.4813 42.7867 39.4813 42.8C39.4946 43.0733 39.5546 43.33 39.6613 43.57C39.7679 43.8033 39.9213 43.9933 40.1213 44.14C40.3213 44.2867 40.5613 44.36 40.8413 44.36C41.0813 44.36 41.2813 44.3233 41.4413 44.25C41.6013 44.1767 41.7313 44.0967 41.8313 44.01C41.9313 43.9167 41.9979 43.8467 42.0313 43.8C42.0913 43.7133 42.1379 43.6633 42.1713 43.65C42.2046 43.63 42.2579 43.62 42.3313 43.62H42.8113C42.8779 43.62 42.9313 43.64 42.9713 43.68C43.0179 43.7133 43.0379 43.7633 43.0312 43.83C43.0246 43.93 42.9713 44.0533 42.8713 44.2C42.7713 44.34 42.6279 44.48 42.4413 44.62C42.2546 44.76 42.0279 44.8767 41.7613 44.97C41.4946 45.0567 41.1879 45.1 40.8413 45.1ZM39.4813 42.02H42.2213V41.99C42.2213 41.69 42.1646 41.4233 42.0513 41.19C41.9446 40.9567 41.7879 40.7733 41.5813 40.64C41.3746 40.5 41.1279 40.43 40.8413 40.43C40.5546 40.43 40.3079 40.5 40.1013 40.64C39.9013 40.7733 39.7479 40.9567 39.6413 41.19C39.5346 41.4233 39.4813 41.69 39.4813 41.99V42.02ZM44.597 45C44.5303 45 44.4736 44.98 44.427 44.94C44.387 44.8933 44.367 44.8367 44.367 44.77V40.03C44.367 39.9633 44.387 39.91 44.427 39.87C44.4736 39.8233 44.5303 39.8 44.597 39.8H45.077C45.1436 39.8 45.197 39.8233 45.237 39.87C45.277 39.91 45.297 39.9633 45.297 40.03V44.77C45.297 44.8367 45.277 44.8933 45.237 44.94C45.197 44.98 45.1436 45 45.077 45H44.597ZM44.517 38.83C44.4503 38.83 44.3936 38.81 44.347 38.77C44.307 38.7233 44.287 38.6667 44.287 38.6V38.06C44.287 37.9933 44.307 37.94 44.347 37.9C44.3936 37.8533 44.4503 37.83 44.517 37.83H45.147C45.2136 37.83 45.267 37.8533 45.307 37.9C45.3536 37.94 45.377 37.9933 45.377 38.06V38.6C45.377 38.6667 45.3536 38.7233 45.307 38.77C45.267 38.81 45.2136 38.83 45.147 38.83H44.517ZM48.9384 45.1C48.4317 45.1 48.0084 45.0033 47.6684 44.81C47.3284 44.6167 47.0684 44.35 46.8884 44.01C46.7084 43.6633 46.6084 43.27 46.5884 42.83C46.5817 42.7167 46.5784 42.5733 46.5784 42.4C46.5784 42.22 46.5817 42.0767 46.5884 41.97C46.6084 41.5233 46.7084 41.13 46.8884 40.79C47.075 40.45 47.3384 40.1833 47.6784 39.99C48.0184 39.7967 48.4384 39.7 48.9384 39.7C49.4384 39.7 49.8584 39.7967 50.1984 39.99C50.5384 40.1833 50.7984 40.45 50.9784 40.79C51.165 41.13 51.2684 41.5233 51.2884 41.97C51.295 42.0767 51.2984 42.22 51.2984 42.4C51.2984 42.5733 51.295 42.7167 51.2884 42.83C51.2684 43.27 51.1684 43.6633 50.9884 44.01C50.8084 44.35 50.5484 44.6167 50.2084 44.81C49.8684 45.0033 49.445 45.1 48.9384 45.1ZM48.9384 44.33C49.3517 44.33 49.6817 44.2 49.9284 43.94C50.175 43.6733 50.3084 43.2867 50.3284 42.78C50.335 42.68 50.3384 42.5533 50.3384 42.4C50.3384 42.2467 50.335 42.12 50.3284 42.02C50.3084 41.5133 50.175 41.13 49.9284 40.87C49.6817 40.6033 49.3517 40.47 48.9384 40.47C48.525 40.47 48.1917 40.6033 47.9384 40.87C47.6917 41.13 47.5617 41.5133 47.5484 42.02C47.5417 42.12 47.5384 42.2467 47.5384 42.4C47.5384 42.5533 47.5417 42.68 47.5484 42.78C47.5617 43.2867 47.6917 43.6733 47.9384 43.94C48.1917 44.2 48.525 44.33 48.9384 44.33ZM54.3505 45.1C53.9772 45.1 53.6572 45.0533 53.3905 44.96C53.1239 44.8667 52.9072 44.7533 52.7405 44.62C52.5739 44.4867 52.4472 44.3533 52.3605 44.22C52.2805 44.0867 52.2372 43.98 52.2305 43.9C52.2239 43.8267 52.2472 43.77 52.3005 43.73C52.3539 43.69 52.4072 43.67 52.4605 43.67H52.9005C52.9405 43.67 52.9705 43.6767 52.9905 43.69C53.0172 43.6967 53.0505 43.7233 53.0905 43.77C53.1772 43.8633 53.2739 43.9567 53.3805 44.05C53.4872 44.1433 53.6172 44.22 53.7705 44.28C53.9305 44.34 54.1272 44.37 54.3605 44.37C54.7005 44.37 54.9805 44.3067 55.2005 44.18C55.4205 44.0467 55.5305 43.8533 55.5305 43.6C55.5305 43.4333 55.4839 43.3 55.3905 43.2C55.3039 43.1 55.1439 43.01 54.9105 42.93C54.6839 42.85 54.3705 42.7667 53.9705 42.68C53.5705 42.5867 53.2539 42.4733 53.0205 42.34C52.7872 42.2 52.6205 42.0367 52.5205 41.85C52.4205 41.6567 52.3705 41.44 52.3705 41.2C52.3705 40.9533 52.4439 40.7167 52.5905 40.49C52.7372 40.2567 52.9505 40.0667 53.2305 39.92C53.5172 39.7733 53.8739 39.7 54.3005 39.7C54.6472 39.7 54.9439 39.7433 55.1905 39.83C55.4372 39.9167 55.6405 40.0267 55.8005 40.16C55.9605 40.2867 56.0805 40.4133 56.1605 40.54C56.2405 40.6667 56.2839 40.7733 56.2905 40.86C56.2972 40.9267 56.2772 40.9833 56.2305 41.03C56.1839 41.07 56.1305 41.09 56.0705 41.09H55.6505C55.6039 41.09 55.5639 41.08 55.5305 41.06C55.5039 41.04 55.4772 41.0167 55.4505 40.99C55.3839 40.9033 55.3039 40.8167 55.2105 40.73C55.1239 40.6433 55.0072 40.5733 54.8605 40.52C54.7205 40.46 54.5339 40.43 54.3005 40.43C53.9672 40.43 53.7172 40.5 53.5505 40.64C53.3839 40.78 53.3005 40.9567 53.3005 41.17C53.3005 41.2967 53.3372 41.41 53.4105 41.51C53.4839 41.61 53.6239 41.7 53.8305 41.78C54.0372 41.86 54.3439 41.9467 54.7505 42.04C55.1905 42.1267 55.5372 42.2433 55.7905 42.39C56.0439 42.5367 56.2239 42.7067 56.3305 42.9C56.4372 43.0933 56.4905 43.3167 56.4905 43.57C56.4905 43.85 56.4072 44.1067 56.2405 44.34C56.0805 44.5733 55.8405 44.76 55.5205 44.9C55.2072 45.0333 54.8172 45.1 54.3505 45.1ZM62.1694 45.1C61.4827 45.1 60.936 44.89 60.5294 44.47C60.1227 44.0433 59.8994 43.4633 59.8594 42.73C59.8527 42.6433 59.8494 42.5333 59.8494 42.4C59.8494 42.26 59.8527 42.1467 59.8594 42.06C59.886 41.5867 59.996 41.1733 60.1894 40.82C60.3827 40.46 60.646 40.1833 60.9794 39.99C61.3194 39.7967 61.716 39.7 62.1694 39.7C62.676 39.7 63.0994 39.8067 63.4394 40.02C63.786 40.2333 64.0494 40.5367 64.2294 40.93C64.4094 41.3233 64.4994 41.7833 64.4994 42.31V42.48C64.4994 42.5533 64.476 42.61 64.4294 42.65C64.3894 42.69 64.336 42.71 64.2694 42.71H60.8094C60.8094 42.7167 60.8094 42.73 60.8094 42.75C60.8094 42.77 60.8094 42.7867 60.8094 42.8C60.8227 43.0733 60.8827 43.33 60.9894 43.57C61.096 43.8033 61.2494 43.9933 61.4494 44.14C61.6494 44.2867 61.8894 44.36 62.1694 44.36C62.4094 44.36 62.6094 44.3233 62.7694 44.25C62.9294 44.1767 63.0594 44.0967 63.1594 44.01C63.2594 43.9167 63.326 43.8467 63.3594 43.8C63.4194 43.7133 63.466 43.6633 63.4994 43.65C63.5327 43.63 63.586 43.62 63.6594 43.62H64.1394C64.206 43.62 64.2594 43.64 64.2994 43.68C64.346 43.7133 64.366 43.7633 64.3594 43.83C64.3527 43.93 64.2994 44.0533 64.1994 44.2C64.0994 44.34 63.956 44.48 63.7694 44.62C63.5827 44.76 63.356 44.8767 63.0894 44.97C62.8227 45.0567 62.516 45.1 62.1694 45.1ZM60.8094 42.02H63.5494V41.99C63.5494 41.69 63.4927 41.4233 63.3794 41.19C63.2727 40.9567 63.116 40.7733 62.9094 40.64C62.7027 40.5 62.456 40.43 62.1694 40.43C61.8827 40.43 61.636 40.5 61.4294 40.64C61.2294 40.7733 61.076 40.9567 60.9694 41.19C60.8627 41.4233 60.8094 41.69 60.8094 41.99V42.02ZM67.7951 45.1C67.3217 45.1 66.9117 45.01 66.5651 44.83C66.2251 44.6433 65.9617 44.38 65.7751 44.04C65.5884 43.6933 65.4884 43.28 65.4751 42.8C65.4684 42.7 65.4651 42.5667 65.4651 42.4C65.4651 42.2333 65.4684 42.1 65.4751 42C65.4884 41.52 65.5884 41.11 65.7751 40.77C65.9617 40.4233 66.2251 40.16 66.5651 39.98C66.9117 39.7933 67.3217 39.7 67.7951 39.7C68.1817 39.7 68.5117 39.7533 68.7851 39.86C69.0651 39.9667 69.2951 40.1033 69.4751 40.27C69.6551 40.4367 69.7884 40.6167 69.8751 40.81C69.9684 41.0033 70.0184 41.1867 70.0251 41.36C70.0317 41.4267 70.0117 41.48 69.9651 41.52C69.9184 41.56 69.8617 41.58 69.7951 41.58H69.3151C69.2484 41.58 69.1984 41.5667 69.1651 41.54C69.1317 41.5067 69.0984 41.4533 69.0651 41.38C68.9451 41.0533 68.7817 40.8233 68.5751 40.69C68.3684 40.5567 68.1117 40.49 67.8051 40.49C67.4051 40.49 67.0784 40.6133 66.8251 40.86C66.5784 41.1067 66.4451 41.5033 66.4251 42.05C66.4184 42.29 66.4184 42.5233 66.4251 42.75C66.4451 43.3033 66.5784 43.7033 66.8251 43.95C67.0784 44.19 67.4051 44.31 67.8051 44.31C68.1117 44.31 68.3684 44.2433 68.5751 44.11C68.7817 43.9767 68.9451 43.7467 69.0651 43.42C69.0984 43.3467 69.1317 43.2967 69.1651 43.27C69.1984 43.2367 69.2484 43.22 69.3151 43.22H69.7951C69.8617 43.22 69.9184 43.24 69.9651 43.28C70.0117 43.32 70.0317 43.3733 70.0251 43.44C70.0184 43.58 69.9884 43.7233 69.9351 43.87C69.8817 44.0167 69.7951 44.1667 69.6751 44.32C69.5617 44.4667 69.4184 44.6 69.2451 44.72C69.0717 44.8333 68.8617 44.9267 68.6151 45C68.3751 45.0667 68.1017 45.1 67.7951 45.1ZM73.3427 45.1C72.836 45.1 72.4127 45.0033 72.0727 44.81C71.7327 44.6167 71.4727 44.35 71.2927 44.01C71.1127 43.6633 71.0127 43.27 70.9927 42.83C70.986 42.7167 70.9827 42.5733 70.9827 42.4C70.9827 42.22 70.986 42.0767 70.9927 41.97C71.0127 41.5233 71.1127 41.13 71.2927 40.79C71.4793 40.45 71.7427 40.1833 72.0827 39.99C72.4227 39.7967 72.8427 39.7 73.3427 39.7C73.8427 39.7 74.2627 39.7967 74.6027 39.99C74.9427 40.1833 75.2027 40.45 75.3827 40.79C75.5693 41.13 75.6727 41.5233 75.6927 41.97C75.6993 42.0767 75.7027 42.22 75.7027 42.4C75.7027 42.5733 75.6993 42.7167 75.6927 42.83C75.6727 43.27 75.5727 43.6633 75.3927 44.01C75.2127 44.35 74.9527 44.6167 74.6127 44.81C74.2727 45.0033 73.8493 45.1 73.3427 45.1ZM73.3427 44.33C73.756 44.33 74.086 44.2 74.3327 43.94C74.5793 43.6733 74.7127 43.2867 74.7327 42.78C74.7393 42.68 74.7427 42.5533 74.7427 42.4C74.7427 42.2467 74.7393 42.12 74.7327 42.02C74.7127 41.5133 74.5793 41.13 74.3327 40.87C74.086 40.6033 73.756 40.47 73.3427 40.47C72.9293 40.47 72.596 40.6033 72.3427 40.87C72.096 41.13 71.966 41.5133 71.9527 42.02C71.946 42.12 71.9427 42.2467 71.9427 42.4C71.9427 42.5533 71.946 42.68 71.9527 42.78C71.966 43.2867 72.096 43.6733 72.3427 43.94C72.596 44.2 72.9293 44.33 73.3427 44.33ZM77.1948 45C77.1282 45 77.0715 44.98 77.0248 44.94C76.9848 44.8933 76.9648 44.8367 76.9648 44.77V38.13C76.9648 38.0633 76.9848 38.01 77.0248 37.97C77.0715 37.9233 77.1282 37.9 77.1948 37.9H77.6648C77.7382 37.9 77.7948 37.9233 77.8348 37.97C77.8748 38.01 77.8948 38.0633 77.8948 38.13V44.77C77.8948 44.8367 77.8748 44.8933 77.8348 44.94C77.7948 44.98 77.7382 45 77.6648 45H77.1948ZM81.5165 45.1C81.0098 45.1 80.5865 45.0033 80.2465 44.81C79.9065 44.6167 79.6465 44.35 79.4665 44.01C79.2865 43.6633 79.1865 43.27 79.1665 42.83C79.1598 42.7167 79.1565 42.5733 79.1565 42.4C79.1565 42.22 79.1598 42.0767 79.1665 41.97C79.1865 41.5233 79.2865 41.13 79.4665 40.79C79.6532 40.45 79.9165 40.1833 80.2565 39.99C80.5965 39.7967 81.0165 39.7 81.5165 39.7C82.0165 39.7 82.4365 39.7967 82.7765 39.99C83.1165 40.1833 83.3765 40.45 83.5565 40.79C83.7432 41.13 83.8465 41.5233 83.8665 41.97C83.8732 42.0767 83.8765 42.22 83.8765 42.4C83.8765 42.5733 83.8732 42.7167 83.8665 42.83C83.8465 43.27 83.7465 43.6633 83.5665 44.01C83.3865 44.35 83.1265 44.6167 82.7865 44.81C82.4465 45.0033 82.0232 45.1 81.5165 45.1ZM81.5165 44.33C81.9298 44.33 82.2598 44.2 82.5065 43.94C82.7532 43.6733 82.8865 43.2867 82.9065 42.78C82.9132 42.68 82.9165 42.5533 82.9165 42.4C82.9165 42.2467 82.9132 42.12 82.9065 42.02C82.8865 41.5133 82.7532 41.13 82.5065 40.87C82.2598 40.6033 81.9298 40.47 81.5165 40.47C81.1032 40.47 80.7698 40.6033 80.5165 40.87C80.2698 41.13 80.1398 41.5133 80.1265 42.02C80.1198 42.12 80.1165 42.2467 80.1165 42.4C80.1165 42.5533 80.1198 42.68 80.1265 42.78C80.1398 43.2867 80.2698 43.6733 80.5165 43.94C80.7698 44.2 81.1032 44.33 81.5165 44.33ZM81.2365 39.05C81.1298 39.05 81.0765 38.9967 81.0765 38.89C81.0765 38.8367 81.0932 38.7933 81.1265 38.76L81.8765 37.86C81.9365 37.7867 81.9898 37.74 82.0365 37.72C82.0832 37.6933 82.1532 37.68 82.2465 37.68H82.9265C83.0532 37.68 83.1165 37.7433 83.1165 37.87C83.1165 37.9167 83.0998 37.9567 83.0665 37.99L81.9065 38.94C81.8532 38.9867 81.8032 39.0167 81.7565 39.03C81.7098 39.0433 81.6498 39.05 81.5765 39.05H81.2365ZM87.2587 47.2C86.8053 47.2 86.432 47.14 86.1387 47.02C85.852 46.9 85.6253 46.7533 85.4587 46.58C85.2987 46.4133 85.182 46.2433 85.1087 46.07C85.042 45.9033 85.0053 45.77 84.9987 45.67C84.992 45.6033 85.012 45.5467 85.0587 45.5C85.112 45.4533 85.1687 45.43 85.2287 45.43H85.7087C85.7687 45.43 85.8187 45.4433 85.8587 45.47C85.8987 45.4967 85.932 45.5533 85.9587 45.64C85.9987 45.74 86.0587 45.85 86.1387 45.97C86.2187 46.0967 86.342 46.2033 86.5087 46.29C86.6753 46.3833 86.9087 46.43 87.2087 46.43C87.522 46.43 87.7853 46.3867 87.9987 46.3C88.212 46.22 88.372 46.0733 88.4787 45.86C88.592 45.6533 88.6487 45.3667 88.6487 45V44.32C88.4887 44.5267 88.2787 44.7 88.0187 44.84C87.7587 44.9733 87.432 45.04 87.0387 45.04C86.6653 45.04 86.3453 44.9767 86.0787 44.85C85.812 44.7167 85.592 44.54 85.4187 44.32C85.252 44.0933 85.1253 43.8367 85.0387 43.55C84.9587 43.2633 84.912 42.9633 84.8987 42.65C84.892 42.4633 84.892 42.28 84.8987 42.1C84.912 41.7867 84.9587 41.4867 85.0387 41.2C85.1253 40.9133 85.252 40.6567 85.4187 40.43C85.592 40.2033 85.812 40.0267 86.0787 39.9C86.3453 39.7667 86.6653 39.7 87.0387 39.7C87.4387 39.7 87.7687 39.7767 88.0287 39.93C88.2953 40.0767 88.512 40.2567 88.6787 40.47V40.04C88.6787 39.9733 88.6987 39.9167 88.7387 39.87C88.7853 39.8233 88.842 39.8 88.9087 39.8H89.3687C89.4353 39.8 89.492 39.8233 89.5387 39.87C89.5853 39.9167 89.6087 39.9733 89.6087 40.04V44.89C89.6087 45.3367 89.532 45.7333 89.3787 46.08C89.232 46.4267 88.9853 46.7 88.6387 46.9C88.2987 47.1 87.8387 47.2 87.2587 47.2ZM87.2387 44.24C87.572 44.24 87.8387 44.1633 88.0387 44.01C88.2453 43.8567 88.3953 43.6633 88.4887 43.43C88.5887 43.1967 88.642 42.96 88.6487 42.72C88.6553 42.6267 88.6587 42.5133 88.6587 42.38C88.6587 42.24 88.6553 42.1233 88.6487 42.03C88.642 41.79 88.5887 41.5533 88.4887 41.32C88.3953 41.0867 88.2453 40.8933 88.0387 40.74C87.8387 40.5867 87.572 40.51 87.2387 40.51C86.9053 40.51 86.6387 40.5867 86.4387 40.74C86.2387 40.8867 86.0953 41.0833 86.0087 41.33C85.922 41.57 85.872 41.83 85.8587 42.11C85.852 42.2833 85.852 42.46 85.8587 42.64C85.872 42.92 85.922 43.1833 86.0087 43.43C86.0953 43.67 86.2387 43.8667 86.4387 44.02C86.6387 44.1667 86.9053 44.24 87.2387 44.24ZM91.3255 45C91.2588 45 91.2021 44.98 91.1555 44.94C91.1155 44.8933 91.0955 44.8367 91.0955 44.77V40.03C91.0955 39.9633 91.1155 39.91 91.1555 39.87C91.2021 39.8233 91.2588 39.8 91.3255 39.8H91.8055C91.8721 39.8 91.9255 39.8233 91.9655 39.87C92.0055 39.91 92.0255 39.9633 92.0255 40.03V44.77C92.0255 44.8367 92.0055 44.8933 91.9655 44.94C91.9255 44.98 91.8721 45 91.8055 45H91.3255ZM91.2455 38.83C91.1788 38.83 91.1221 38.81 91.0755 38.77C91.0355 38.7233 91.0155 38.6667 91.0155 38.6V38.06C91.0155 37.9933 91.0355 37.94 91.0755 37.9C91.1221 37.8533 91.1788 37.83 91.2455 37.83H91.8755C91.9421 37.83 91.9955 37.8533 92.0355 37.9C92.0821 37.94 92.1055 37.9933 92.1055 38.06V38.6C92.1055 38.6667 92.0821 38.7233 92.0355 38.77C91.9955 38.81 91.9421 38.83 91.8755 38.83H91.2455ZM95.6369 45.1C95.1635 45.1 94.7535 45.01 94.4069 44.83C94.0669 44.6433 93.8035 44.38 93.6169 44.04C93.4302 43.6933 93.3302 43.28 93.3169 42.8C93.3102 42.7 93.3069 42.5667 93.3069 42.4C93.3069 42.2333 93.3102 42.1 93.3169 42C93.3302 41.52 93.4302 41.11 93.6169 40.77C93.8035 40.4233 94.0669 40.16 94.4069 39.98C94.7535 39.7933 95.1635 39.7 95.6369 39.7C96.0235 39.7 96.3535 39.7533 96.6269 39.86C96.9069 39.9667 97.1369 40.1033 97.3169 40.27C97.4969 40.4367 97.6302 40.6167 97.7169 40.81C97.8102 41.0033 97.8602 41.1867 97.8669 41.36C97.8735 41.4267 97.8535 41.48 97.8069 41.52C97.7602 41.56 97.7035 41.58 97.6369 41.58H97.1569C97.0902 41.58 97.0402 41.5667 97.0069 41.54C96.9735 41.5067 96.9402 41.4533 96.9069 41.38C96.7869 41.0533 96.6235 40.8233 96.4169 40.69C96.2102 40.5567 95.9535 40.49 95.6469 40.49C95.2469 40.49 94.9202 40.6133 94.6669 40.86C94.4202 41.1067 94.2869 41.5033 94.2669 42.05C94.2602 42.29 94.2602 42.5233 94.2669 42.75C94.2869 43.3033 94.4202 43.7033 94.6669 43.95C94.9202 44.19 95.2469 44.31 95.6469 44.31C95.9535 44.31 96.2102 44.2433 96.4169 44.11C96.6235 43.9767 96.7869 43.7467 96.9069 43.42C96.9402 43.3467 96.9735 43.2967 97.0069 43.27C97.0402 43.2367 97.0902 43.22 97.1569 43.22H97.6369C97.7035 43.22 97.7602 43.24 97.8069 43.28C97.8535 43.32 97.8735 43.3733 97.8669 43.44C97.8602 43.58 97.8302 43.7233 97.7769 43.87C97.7235 44.0167 97.6369 44.1667 97.5169 44.32C97.4035 44.4667 97.2602 44.6 97.0869 44.72C96.9135 44.8333 96.7035 44.9267 96.4569 45C96.2169 45.0667 95.9435 45.1 95.6369 45.1ZM101.184 45.1C100.678 45.1 100.254 45.0033 99.9145 44.81C99.5745 44.6167 99.3145 44.35 99.1345 44.01C98.9545 43.6633 98.8545 43.27 98.8345 42.83C98.8278 42.7167 98.8245 42.5733 98.8245 42.4C98.8245 42.22 98.8278 42.0767 98.8345 41.97C98.8545 41.5233 98.9545 41.13 99.1345 40.79C99.3211 40.45 99.5845 40.1833 99.9245 39.99C100.264 39.7967 100.684 39.7 101.184 39.7C101.684 39.7 102.104 39.7967 102.444 39.99C102.784 40.1833 103.044 40.45 103.224 40.79C103.411 41.13 103.514 41.5233 103.534 41.97C103.541 42.0767 103.544 42.22 103.544 42.4C103.544 42.5733 103.541 42.7167 103.534 42.83C103.514 43.27 103.414 43.6633 103.234 44.01C103.054 44.35 102.794 44.6167 102.454 44.81C102.114 45.0033 101.691 45.1 101.184 45.1ZM101.184 44.33C101.598 44.33 101.928 44.2 102.174 43.94C102.421 43.6733 102.554 43.2867 102.574 42.78C102.581 42.68 102.584 42.5533 102.584 42.4C102.584 42.2467 102.581 42.12 102.574 42.02C102.554 41.5133 102.421 41.13 102.174 40.87C101.928 40.6033 101.598 40.47 101.184 40.47C100.771 40.47 100.438 40.6033 100.184 40.87C99.9378 41.13 99.8078 41.5133 99.7945 42.02C99.7878 42.12 99.7845 42.2467 99.7845 42.4C99.7845 42.5533 99.7878 42.68 99.7945 42.78C99.8078 43.2867 99.9378 43.6733 100.184 43.94C100.438 44.2 100.771 44.33 101.184 44.33ZM106.597 45.1C106.223 45.1 105.903 45.0533 105.637 44.96C105.37 44.8667 105.153 44.7533 104.987 44.62C104.82 44.4867 104.693 44.3533 104.607 44.22C104.527 44.0867 104.483 43.98 104.477 43.9C104.47 43.8267 104.493 43.77 104.547 43.73C104.6 43.69 104.653 43.67 104.707 43.67H105.147C105.187 43.67 105.217 43.6767 105.237 43.69C105.263 43.6967 105.297 43.7233 105.337 43.77C105.423 43.8633 105.52 43.9567 105.627 44.05C105.733 44.1433 105.863 44.22 106.017 44.28C106.177 44.34 106.373 44.37 106.607 44.37C106.947 44.37 107.227 44.3067 107.447 44.18C107.667 44.0467 107.777 43.8533 107.777 43.6C107.777 43.4333 107.73 43.3 107.637 43.2C107.55 43.1 107.39 43.01 107.157 42.93C106.93 42.85 106.617 42.7667 106.217 42.68C105.817 42.5867 105.5 42.4733 105.267 42.34C105.033 42.2 104.867 42.0367 104.767 41.85C104.667 41.6567 104.617 41.44 104.617 41.2C104.617 40.9533 104.69 40.7167 104.837 40.49C104.983 40.2567 105.197 40.0667 105.477 39.92C105.763 39.7733 106.12 39.7 106.547 39.7C106.893 39.7 107.19 39.7433 107.437 39.83C107.683 39.9167 107.887 40.0267 108.047 40.16C108.207 40.2867 108.327 40.4133 108.407 40.54C108.487 40.6667 108.53 40.7733 108.537 40.86C108.543 40.9267 108.523 40.9833 108.477 41.03C108.43 41.07 108.377 41.09 108.317 41.09H107.897C107.85 41.09 107.81 41.08 107.777 41.06C107.75 41.04 107.723 41.0167 107.697 40.99C107.63 40.9033 107.55 40.8167 107.457 40.73C107.37 40.6433 107.253 40.5733 107.107 40.52C106.967 40.46 106.78 40.43 106.547 40.43C106.213 40.43 105.963 40.5 105.797 40.64C105.63 40.78 105.547 40.9567 105.547 41.17C105.547 41.2967 105.583 41.41 105.657 41.51C105.73 41.61 105.87 41.7 106.077 41.78C106.283 41.86 106.59 41.9467 106.997 42.04C107.437 42.1267 107.783 42.2433 108.037 42.39C108.29 42.5367 108.47 42.7067 108.577 42.9C108.683 43.0933 108.737 43.3167 108.737 43.57C108.737 43.85 108.653 44.1067 108.487 44.34C108.327 44.5733 108.087 44.76 107.767 44.9C107.453 45.0333 107.063 45.1 106.597 45.1ZM18.63 57C18.5633 57 18.5067 56.98 18.46 56.94C18.42 56.8933 18.4 56.8367 18.4 56.77V50.89H16.48C16.4133 50.89 16.3567 50.87 16.31 50.83C16.27 50.7833 16.25 50.7267 16.25 50.66V50.24C16.25 50.1667 16.27 50.11 16.31 50.07C16.3567 50.0233 16.4133 50 16.48 50H21.3C21.3733 50 21.43 50.0233 21.47 50.07C21.5167 50.11 21.54 50.1667 21.54 50.24V50.66C21.54 50.7267 21.5167 50.7833 21.47 50.83C21.43 50.87 21.3733 50.89 21.3 50.89H19.39V56.77C19.39 56.8367 19.3667 56.8933 19.32 56.94C19.28 56.98 19.2233 57 19.15 57H18.63ZM23.68 57.1C23.2533 57.1 22.89 57.0067 22.59 56.82C22.2967 56.6267 22.0733 56.36 21.92 56.02C21.7667 55.68 21.69 55.29 21.69 54.85V52.03C21.69 51.9633 21.71 51.91 21.75 51.87C21.7967 51.8233 21.8533 51.8 21.92 51.8H22.42C22.4867 51.8 22.54 51.8233 22.58 51.87C22.6267 51.91 22.65 51.9633 22.65 52.03V54.8C22.65 55.7933 23.0833 56.29 23.95 56.29C24.3633 56.29 24.6933 56.16 24.94 55.9C25.1933 55.6333 25.32 55.2667 25.32 54.8V52.03C25.32 51.9633 25.34 51.91 25.38 51.87C25.4267 51.8233 25.4833 51.8 25.55 51.8H26.04C26.1133 51.8 26.17 51.8233 26.21 51.87C26.25 51.91 26.27 51.9633 26.27 52.03V56.77C26.27 56.8367 26.25 56.8933 26.21 56.94C26.17 56.98 26.1133 57 26.04 57H25.58C25.5133 57 25.4567 56.98 25.41 56.94C25.37 56.8933 25.35 56.8367 25.35 56.77V56.33C25.17 56.5633 24.95 56.75 24.69 56.89C24.4367 57.03 24.1 57.1 23.68 57.1ZM27.9856 57C27.919 57 27.8623 56.98 27.8156 56.94C27.7756 56.8933 27.7556 56.8367 27.7556 56.77V52.04C27.7556 51.9733 27.7756 51.9167 27.8156 51.87C27.8623 51.8233 27.919 51.8 27.9856 51.8H28.4456C28.5123 51.8 28.569 51.8233 28.6156 51.87C28.6623 51.9167 28.6856 51.9733 28.6856 52.04V52.48C28.819 52.2533 29.0023 52.0833 29.2356 51.97C29.469 51.8567 29.749 51.8 30.0756 51.8H30.4756C30.5423 51.8 30.5956 51.8233 30.6356 51.87C30.6756 51.91 30.6956 51.9633 30.6956 52.03V52.44C30.6956 52.5067 30.6756 52.56 30.6356 52.6C30.5956 52.64 30.5423 52.66 30.4756 52.66H29.8756C29.5156 52.66 29.2323 52.7667 29.0256 52.98C28.819 53.1867 28.7156 53.47 28.7156 53.83V56.77C28.7156 56.8367 28.6923 56.8933 28.6456 56.94C28.599 56.98 28.5423 57 28.4756 57H27.9856ZM31.7845 57C31.7178 57 31.6611 56.98 31.6145 56.94C31.5745 56.8933 31.5545 56.8367 31.5545 56.77V52.03C31.5545 51.9633 31.5745 51.91 31.6145 51.87C31.6611 51.8233 31.7178 51.8 31.7845 51.8H32.2645C32.3311 51.8 32.3845 51.8233 32.4245 51.87C32.4645 51.91 32.4845 51.9633 32.4845 52.03V56.77C32.4845 56.8367 32.4645 56.8933 32.4245 56.94C32.3845 56.98 32.3311 57 32.2645 57H31.7845ZM31.7045 50.83C31.6378 50.83 31.5811 50.81 31.5345 50.77C31.4945 50.7233 31.4745 50.6667 31.4745 50.6V50.06C31.4745 49.9933 31.4945 49.94 31.5345 49.9C31.5811 49.8533 31.6378 49.83 31.7045 49.83H32.3345C32.4011 49.83 32.4545 49.8533 32.4945 49.9C32.5411 49.94 32.5645 49.9933 32.5645 50.06V50.6C32.5645 50.6667 32.5411 50.7233 32.4945 50.77C32.4545 50.81 32.4011 50.83 32.3345 50.83H31.7045ZM35.8349 57.1C35.4616 57.1 35.1416 57.0533 34.8749 56.96C34.6083 56.8667 34.3916 56.7533 34.2249 56.62C34.0583 56.4867 33.9316 56.3533 33.8449 56.22C33.7649 56.0867 33.7216 55.98 33.7149 55.9C33.7083 55.8267 33.7316 55.77 33.7849 55.73C33.8383 55.69 33.8916 55.67 33.9449 55.67H34.3849C34.4249 55.67 34.4549 55.6767 34.4749 55.69C34.5016 55.6967 34.5349 55.7233 34.5749 55.77C34.6616 55.8633 34.7583 55.9567 34.8649 56.05C34.9716 56.1433 35.1016 56.22 35.2549 56.28C35.4149 56.34 35.6116 56.37 35.8449 56.37C36.1849 56.37 36.4649 56.3067 36.6849 56.18C36.9049 56.0467 37.0149 55.8533 37.0149 55.6C37.0149 55.4333 36.9683 55.3 36.8749 55.2C36.7883 55.1 36.6283 55.01 36.3949 54.93C36.1683 54.85 35.8549 54.7667 35.4549 54.68C35.0549 54.5867 34.7383 54.4733 34.5049 54.34C34.2716 54.2 34.1049 54.0367 34.0049 53.85C33.9049 53.6567 33.8549 53.44 33.8549 53.2C33.8549 52.9533 33.9283 52.7167 34.0749 52.49C34.2216 52.2567 34.4349 52.0667 34.7149 51.92C35.0016 51.7733 35.3583 51.7 35.7849 51.7C36.1316 51.7 36.4283 51.7433 36.6749 51.83C36.9216 51.9167 37.1249 52.0267 37.2849 52.16C37.4449 52.2867 37.5649 52.4133 37.6449 52.54C37.7249 52.6667 37.7683 52.7733 37.7749 52.86C37.7816 52.9267 37.7616 52.9833 37.7149 53.03C37.6683 53.07 37.6149 53.09 37.5549 53.09H37.1349C37.0883 53.09 37.0483 53.08 37.0149 53.06C36.9883 53.04 36.9616 53.0167 36.9349 52.99C36.8683 52.9033 36.7883 52.8167 36.6949 52.73C36.6083 52.6433 36.4916 52.5733 36.3449 52.52C36.2049 52.46 36.0183 52.43 35.7849 52.43C35.4516 52.43 35.2016 52.5 35.0349 52.64C34.8683 52.78 34.7849 52.9567 34.7849 53.17C34.7849 53.2967 34.8216 53.41 34.8949 53.51C34.9683 53.61 35.1083 53.7 35.3149 53.78C35.5216 53.86 35.8283 53.9467 36.2349 54.04C36.6749 54.1267 37.0216 54.2433 37.2749 54.39C37.5283 54.5367 37.7083 54.7067 37.8149 54.9C37.9216 55.0933 37.9749 55.3167 37.9749 55.57C37.9749 55.85 37.8916 56.1067 37.7249 56.34C37.5649 56.5733 37.3249 56.76 37.0049 56.9C36.6916 57.0333 36.3016 57.1 35.8349 57.1ZM39.3626 57C39.2959 57 39.2392 56.98 39.1926 56.94C39.1526 56.8933 39.1326 56.8367 39.1326 56.77V52.03C39.1326 51.9633 39.1526 51.91 39.1926 51.87C39.2392 51.8233 39.2959 51.8 39.3626 51.8H39.8126C39.8792 51.8 39.9326 51.8233 39.9726 51.87C40.0192 51.91 40.0426 51.9633 40.0426 52.03V52.38C40.1959 52.1733 40.3892 52.01 40.6226 51.89C40.8559 51.7633 41.1359 51.7 41.4626 51.7C42.2159 51.6933 42.7492 52 43.0626 52.62C43.2159 52.34 43.4392 52.1167 43.7326 51.95C44.0259 51.7833 44.3592 51.7 44.7326 51.7C45.0792 51.7 45.3926 51.78 45.6726 51.94C45.9592 52.1 46.1826 52.3433 46.3426 52.67C46.5092 52.99 46.5926 53.3933 46.5926 53.88V56.77C46.5926 56.8367 46.5692 56.8933 46.5226 56.94C46.4826 56.98 46.4292 57 46.3626 57H45.8926C45.8259 57 45.7692 56.98 45.7226 56.94C45.6826 56.8933 45.6626 56.8367 45.6626 56.77V53.97C45.6626 53.5967 45.6092 53.3033 45.5026 53.09C45.3959 52.8767 45.2526 52.7267 45.0726 52.64C44.8926 52.5533 44.6959 52.51 44.4826 52.51C44.3092 52.51 44.1326 52.5533 43.9526 52.64C43.7726 52.7267 43.6226 52.8767 43.5026 53.09C43.3892 53.3033 43.3326 53.5967 43.3326 53.97V56.77C43.3326 56.8367 43.3092 56.8933 43.2626 56.94C43.2226 56.98 43.1692 57 43.1026 57H42.6326C42.5659 57 42.5092 56.98 42.4626 56.94C42.4226 56.8933 42.4026 56.8367 42.4026 56.77V53.97C42.4026 53.5967 42.3459 53.3033 42.2326 53.09C42.1192 52.8767 41.9726 52.7267 41.7926 52.64C41.6126 52.5533 41.4226 52.51 41.2226 52.51C41.0492 52.51 40.8726 52.5533 40.6926 52.64C40.5126 52.7267 40.3626 52.8767 40.2426 53.09C40.1292 53.3033 40.0726 53.5933 40.0726 53.96V56.77C40.0726 56.8367 40.0492 56.8933 40.0026 56.94C39.9626 56.98 39.9092 57 39.8426 57H39.3626ZM50.1493 57.1C49.6426 57.1 49.2193 57.0033 48.8793 56.81C48.5393 56.6167 48.2793 56.35 48.0993 56.01C47.9193 55.6633 47.8193 55.27 47.7993 54.83C47.7926 54.7167 47.7893 54.5733 47.7893 54.4C47.7893 54.22 47.7926 54.0767 47.7993 53.97C47.8193 53.5233 47.9193 53.13 48.0993 52.79C48.286 52.45 48.5493 52.1833 48.8893 51.99C49.2293 51.7967 49.6493 51.7 50.1493 51.7C50.6493 51.7 51.0693 51.7967 51.4093 51.99C51.7493 52.1833 52.0093 52.45 52.1893 52.79C52.376 53.13 52.4793 53.5233 52.4993 53.97C52.506 54.0767 52.5093 54.22 52.5093 54.4C52.5093 54.5733 52.506 54.7167 52.4993 54.83C52.4793 55.27 52.3793 55.6633 52.1993 56.01C52.0193 56.35 51.7593 56.6167 51.4193 56.81C51.0793 57.0033 50.656 57.1 50.1493 57.1ZM50.1493 56.33C50.5626 56.33 50.8926 56.2 51.1393 55.94C51.386 55.6733 51.5193 55.2867 51.5393 54.78C51.546 54.68 51.5493 54.5533 51.5493 54.4C51.5493 54.2467 51.546 54.12 51.5393 54.02C51.5193 53.5133 51.386 53.13 51.1393 52.87C50.8926 52.6033 50.5626 52.47 50.1493 52.47C49.736 52.47 49.4026 52.6033 49.1493 52.87C48.9026 53.13 48.7726 53.5133 48.7593 54.02C48.7526 54.12 48.7493 54.2467 48.7493 54.4C48.7493 54.5533 48.7526 54.68 48.7593 54.78C48.7726 55.2867 48.9026 55.6733 49.1493 55.94C49.4026 56.2 49.736 56.33 50.1493 56.33ZM58.3127 57.1C57.8393 57.1 57.4293 57.01 57.0827 56.83C56.7427 56.6433 56.4793 56.38 56.2927 56.04C56.106 55.6933 56.006 55.28 55.9927 54.8C55.986 54.7 55.9827 54.5667 55.9827 54.4C55.9827 54.2333 55.986 54.1 55.9927 54C56.006 53.52 56.106 53.11 56.2927 52.77C56.4793 52.4233 56.7427 52.16 57.0827 51.98C57.4293 51.7933 57.8393 51.7 58.3127 51.7C58.6993 51.7 59.0293 51.7533 59.3027 51.86C59.5827 51.9667 59.8127 52.1033 59.9927 52.27C60.1727 52.4367 60.306 52.6167 60.3927 52.81C60.486 53.0033 60.536 53.1867 60.5427 53.36C60.5493 53.4267 60.5293 53.48 60.4827 53.52C60.436 53.56 60.3793 53.58 60.3127 53.58H59.8327C59.766 53.58 59.716 53.5667 59.6827 53.54C59.6493 53.5067 59.616 53.4533 59.5827 53.38C59.4627 53.0533 59.2993 52.8233 59.0927 52.69C58.886 52.5567 58.6293 52.49 58.3227 52.49C57.9227 52.49 57.596 52.6133 57.3427 52.86C57.096 53.1067 56.9627 53.5033 56.9427 54.05C56.936 54.29 56.936 54.5233 56.9427 54.75C56.9627 55.3033 57.096 55.7033 57.3427 55.95C57.596 56.19 57.9227 56.31 58.3227 56.31C58.6293 56.31 58.886 56.2433 59.0927 56.11C59.2993 55.9767 59.4627 55.7467 59.5827 55.42C59.616 55.3467 59.6493 55.2967 59.6827 55.27C59.716 55.2367 59.766 55.22 59.8327 55.22H60.3127C60.3793 55.22 60.436 55.24 60.4827 55.28C60.5293 55.32 60.5493 55.3733 60.5427 55.44C60.536 55.58 60.506 55.7233 60.4527 55.87C60.3993 56.0167 60.3127 56.1667 60.1927 56.32C60.0793 56.4667 59.936 56.6 59.7627 56.72C59.5893 56.8333 59.3793 56.9267 59.1327 57C58.8927 57.0667 58.6193 57.1 58.3127 57.1ZM63.8602 57.1C63.3536 57.1 62.9302 57.0033 62.5902 56.81C62.2502 56.6167 61.9902 56.35 61.8102 56.01C61.6302 55.6633 61.5302 55.27 61.5102 54.83C61.5036 54.7167 61.5002 54.5733 61.5002 54.4C61.5002 54.22 61.5036 54.0767 61.5102 53.97C61.5302 53.5233 61.6302 53.13 61.8102 52.79C61.9969 52.45 62.2602 52.1833 62.6002 51.99C62.9402 51.7967 63.3602 51.7 63.8602 51.7C64.3602 51.7 64.7802 51.7967 65.1202 51.99C65.4602 52.1833 65.7202 52.45 65.9002 52.79C66.0869 53.13 66.1902 53.5233 66.2102 53.97C66.2169 54.0767 66.2202 54.22 66.2202 54.4C66.2202 54.5733 66.2169 54.7167 66.2102 54.83C66.1902 55.27 66.0902 55.6633 65.9102 56.01C65.7302 56.35 65.4702 56.6167 65.1302 56.81C64.7902 57.0033 64.3669 57.1 63.8602 57.1ZM63.8602 56.33C64.2736 56.33 64.6036 56.2 64.8502 55.94C65.0969 55.6733 65.2302 55.2867 65.2502 54.78C65.2569 54.68 65.2602 54.5533 65.2602 54.4C65.2602 54.2467 65.2569 54.12 65.2502 54.02C65.2302 53.5133 65.0969 53.13 64.8502 52.87C64.6036 52.6033 64.2736 52.47 63.8602 52.47C63.4469 52.47 63.1136 52.6033 62.8602 52.87C62.6136 53.13 62.4836 53.5133 62.4702 54.02C62.4636 54.12 62.4602 54.2467 62.4602 54.4C62.4602 54.5533 62.4636 54.68 62.4702 54.78C62.4836 55.2867 62.6136 55.6733 62.8602 55.94C63.1136 56.2 63.4469 56.33 63.8602 56.33ZM67.7024 57C67.6358 57 67.5791 56.98 67.5324 56.94C67.4924 56.8933 67.4724 56.8367 67.4724 56.77V52.03C67.4724 51.9633 67.4924 51.91 67.5324 51.87C67.5791 51.8233 67.6358 51.8 67.7024 51.8H68.1524C68.2191 51.8 68.2724 51.8233 68.3124 51.87C68.3591 51.91 68.3824 51.9633 68.3824 52.03V52.38C68.5358 52.1733 68.7291 52.01 68.9624 51.89C69.1958 51.7633 69.4758 51.7 69.8024 51.7C70.5558 51.6933 71.0891 52 71.4024 52.62C71.5558 52.34 71.7791 52.1167 72.0724 51.95C72.3658 51.7833 72.6991 51.7 73.0724 51.7C73.4191 51.7 73.7324 51.78 74.0124 51.94C74.2991 52.1 74.5224 52.3433 74.6824 52.67C74.8491 52.99 74.9324 53.3933 74.9324 53.88V56.77C74.9324 56.8367 74.9091 56.8933 74.8624 56.94C74.8224 56.98 74.7691 57 74.7024 57H74.2324C74.1658 57 74.1091 56.98 74.0624 56.94C74.0224 56.8933 74.0024 56.8367 74.0024 56.77V53.97C74.0024 53.5967 73.9491 53.3033 73.8424 53.09C73.7358 52.8767 73.5924 52.7267 73.4124 52.64C73.2324 52.5533 73.0358 52.51 72.8224 52.51C72.6491 52.51 72.4724 52.5533 72.2924 52.64C72.1124 52.7267 71.9624 52.8767 71.8424 53.09C71.7291 53.3033 71.6724 53.5967 71.6724 53.97V56.77C71.6724 56.8367 71.6491 56.8933 71.6024 56.94C71.5624 56.98 71.5091 57 71.4424 57H70.9724C70.9058 57 70.8491 56.98 70.8024 56.94C70.7624 56.8933 70.7424 56.8367 70.7424 56.77V53.97C70.7424 53.5967 70.6858 53.3033 70.5724 53.09C70.4591 52.8767 70.3124 52.7267 70.1324 52.64C69.9524 52.5533 69.7624 52.51 69.5624 52.51C69.3891 52.51 69.2124 52.5533 69.0324 52.64C68.8524 52.7267 68.7024 52.8767 68.5824 53.09C68.4691 53.3033 68.4124 53.5933 68.4124 53.96V56.77C68.4124 56.8367 68.3891 56.8933 68.3424 56.94C68.3024 56.98 68.2491 57 68.1824 57H67.7024ZM80.9103 57.1C80.437 57.1 80.027 57.01 79.6803 56.83C79.3403 56.6433 79.077 56.38 78.8903 56.04C78.7036 55.6933 78.6036 55.28 78.5903 54.8C78.5836 54.7 78.5803 54.5667 78.5803 54.4C78.5803 54.2333 78.5836 54.1 78.5903 54C78.6036 53.52 78.7036 53.11 78.8903 52.77C79.077 52.4233 79.3403 52.16 79.6803 51.98C80.027 51.7933 80.437 51.7 80.9103 51.7C81.297 51.7 81.627 51.7533 81.9003 51.86C82.1803 51.9667 82.4103 52.1033 82.5903 52.27C82.7703 52.4367 82.9036 52.6167 82.9903 52.81C83.0836 53.0033 83.1336 53.1867 83.1403 53.36C83.147 53.4267 83.127 53.48 83.0803 53.52C83.0336 53.56 82.977 53.58 82.9103 53.58H82.4303C82.3636 53.58 82.3136 53.5667 82.2803 53.54C82.247 53.5067 82.2136 53.4533 82.1803 53.38C82.0603 53.0533 81.897 52.8233 81.6903 52.69C81.4836 52.5567 81.227 52.49 80.9203 52.49C80.5203 52.49 80.1936 52.6133 79.9403 52.86C79.6936 53.1067 79.5603 53.5033 79.5403 54.05C79.5336 54.29 79.5336 54.5233 79.5403 54.75C79.5603 55.3033 79.6936 55.7033 79.9403 55.95C80.1936 56.19 80.5203 56.31 80.9203 56.31C81.227 56.31 81.4836 56.2433 81.6903 56.11C81.897 55.9767 82.0603 55.7467 82.1803 55.42C82.2136 55.3467 82.247 55.2967 82.2803 55.27C82.3136 55.2367 82.3636 55.22 82.4303 55.22H82.9103C82.977 55.22 83.0336 55.24 83.0803 55.28C83.127 55.32 83.147 55.3733 83.1403 55.44C83.1336 55.58 83.1036 55.7233 83.0503 55.87C82.997 56.0167 82.9103 56.1667 82.7903 56.32C82.677 56.4667 82.5336 56.6 82.3603 56.72C82.187 56.8333 81.977 56.9267 81.7303 57C81.4903 57.0667 81.217 57.1 80.9103 57.1ZM86.4579 57.1C85.9512 57.1 85.5279 57.0033 85.1879 56.81C84.8479 56.6167 84.5879 56.35 84.4079 56.01C84.2279 55.6633 84.1279 55.27 84.1079 54.83C84.1012 54.7167 84.0979 54.5733 84.0979 54.4C84.0979 54.22 84.1012 54.0767 84.1079 53.97C84.1279 53.5233 84.2279 53.13 84.4079 52.79C84.5946 52.45 84.8579 52.1833 85.1979 51.99C85.5379 51.7967 85.9579 51.7 86.4579 51.7C86.9579 51.7 87.3779 51.7967 87.7179 51.99C88.0579 52.1833 88.3179 52.45 88.4979 52.79C88.6846 53.13 88.7879 53.5233 88.8079 53.97C88.8146 54.0767 88.8179 54.22 88.8179 54.4C88.8179 54.5733 88.8146 54.7167 88.8079 54.83C88.7879 55.27 88.6879 55.6633 88.5079 56.01C88.3279 56.35 88.0679 56.6167 87.7279 56.81C87.3879 57.0033 86.9646 57.1 86.4579 57.1ZM86.4579 56.33C86.8712 56.33 87.2012 56.2 87.4479 55.94C87.6946 55.6733 87.8279 55.2867 87.8479 54.78C87.8546 54.68 87.8579 54.5533 87.8579 54.4C87.8579 54.2467 87.8546 54.12 87.8479 54.02C87.8279 53.5133 87.6946 53.13 87.4479 52.87C87.2012 52.6033 86.8712 52.47 86.4579 52.47C86.0446 52.47 85.7112 52.6033 85.4579 52.87C85.2112 53.13 85.0812 53.5133 85.0679 54.02C85.0612 54.12 85.0579 54.2467 85.0579 54.4C85.0579 54.5533 85.0612 54.68 85.0679 54.78C85.0812 55.2867 85.2112 55.6733 85.4579 55.94C85.7112 56.2 86.0446 56.33 86.4579 56.33ZM90.3001 57C90.2334 57 90.1767 56.98 90.1301 56.94C90.0901 56.8933 90.0701 56.8367 90.0701 56.77V52.03C90.0701 51.9633 90.0901 51.91 90.1301 51.87C90.1767 51.8233 90.2334 51.8 90.3001 51.8H90.7701C90.8367 51.8 90.8901 51.8233 90.9301 51.87C90.9767 51.91 91.0001 51.9633 91.0001 52.03V52.47C91.1734 52.2433 91.3901 52.06 91.6501 51.92C91.9167 51.7733 92.2567 51.7 92.6701 51.7C93.1034 51.7 93.4701 51.7967 93.7701 51.99C94.0767 52.1767 94.3067 52.44 94.4601 52.78C94.6134 53.1133 94.6901 53.5033 94.6901 53.95V56.77C94.6901 56.8367 94.6701 56.8933 94.6301 56.94C94.5901 56.98 94.5367 57 94.4701 57H93.9701C93.9034 57 93.8467 56.98 93.8001 56.94C93.7601 56.8933 93.7401 56.8367 93.7401 56.77V54C93.7401 53.5333 93.6267 53.17 93.4001 52.91C93.1734 52.6433 92.8401 52.51 92.4001 52.51C91.9867 52.51 91.6534 52.6433 91.4001 52.91C91.1534 53.17 91.0301 53.5333 91.0301 54V56.77C91.0301 56.8367 91.0067 56.8933 90.9601 56.94C90.9201 56.98 90.8667 57 90.8001 57H90.3001ZM97.9345 57.1C97.5612 57.1 97.2412 57.0533 96.9745 56.96C96.7079 56.8667 96.4912 56.7533 96.3245 56.62C96.1579 56.4867 96.0312 56.3533 95.9445 56.22C95.8645 56.0867 95.8212 55.98 95.8145 55.9C95.8079 55.8267 95.8312 55.77 95.8845 55.73C95.9379 55.69 95.9912 55.67 96.0445 55.67H96.4845C96.5245 55.67 96.5545 55.6767 96.5745 55.69C96.6012 55.6967 96.6345 55.7233 96.6745 55.77C96.7612 55.8633 96.8579 55.9567 96.9645 56.05C97.0712 56.1433 97.2012 56.22 97.3545 56.28C97.5145 56.34 97.7112 56.37 97.9445 56.37C98.2845 56.37 98.5645 56.3067 98.7845 56.18C99.0045 56.0467 99.1145 55.8533 99.1145 55.6C99.1145 55.4333 99.0679 55.3 98.9745 55.2C98.8879 55.1 98.7279 55.01 98.4945 54.93C98.2679 54.85 97.9545 54.7667 97.5545 54.68C97.1545 54.5867 96.8379 54.4733 96.6045 54.34C96.3712 54.2 96.2045 54.0367 96.1045 53.85C96.0045 53.6567 95.9545 53.44 95.9545 53.2C95.9545 52.9533 96.0279 52.7167 96.1745 52.49C96.3212 52.2567 96.5345 52.0667 96.8145 51.92C97.1012 51.7733 97.4579 51.7 97.8845 51.7C98.2312 51.7 98.5279 51.7433 98.7745 51.83C99.0212 51.9167 99.2245 52.0267 99.3845 52.16C99.5445 52.2867 99.6645 52.4133 99.7445 52.54C99.8245 52.6667 99.8679 52.7733 99.8745 52.86C99.8812 52.9267 99.8612 52.9833 99.8145 53.03C99.7679 53.07 99.7145 53.09 99.6545 53.09H99.2345C99.1879 53.09 99.1479 53.08 99.1145 53.06C99.0879 53.04 99.0612 53.0167 99.0345 52.99C98.9679 52.9033 98.8879 52.8167 98.7945 52.73C98.7079 52.6433 98.5912 52.5733 98.4445 52.52C98.3045 52.46 98.1179 52.43 97.8845 52.43C97.5512 52.43 97.3012 52.5 97.1345 52.64C96.9679 52.78 96.8845 52.9567 96.8845 53.17C96.8845 53.2967 96.9212 53.41 96.9945 53.51C97.0679 53.61 97.2079 53.7 97.4145 53.78C97.6212 53.86 97.9279 53.9467 98.3345 54.04C98.7745 54.1267 99.1212 54.2433 99.3745 54.39C99.6279 54.5367 99.8079 54.7067 99.9145 54.9C100.021 55.0933 100.075 55.3167 100.075 55.57C100.075 55.85 99.9912 56.1067 99.8245 56.34C99.6645 56.5733 99.4245 56.76 99.1045 56.9C98.7912 57.0333 98.4012 57.1 97.9345 57.1ZM103.332 57.1C102.859 57.1 102.449 57.01 102.102 56.83C101.762 56.6433 101.499 56.38 101.312 56.04C101.126 55.6933 101.026 55.28 101.012 54.8C101.006 54.7 101.002 54.5667 101.002 54.4C101.002 54.2333 101.006 54.1 101.012 54C101.026 53.52 101.126 53.11 101.312 52.77C101.499 52.4233 101.762 52.16 102.102 51.98C102.449 51.7933 102.859 51.7 103.332 51.7C103.719 51.7 104.049 51.7533 104.322 51.86C104.602 51.9667 104.832 52.1033 105.012 52.27C105.192 52.4367 105.326 52.6167 105.412 52.81C105.506 53.0033 105.556 53.1867 105.562 53.36C105.569 53.4267 105.549 53.48 105.502 53.52C105.456 53.56 105.399 53.58 105.332 53.58H104.852C104.786 53.58 104.736 53.5667 104.702 53.54C104.669 53.5067 104.636 53.4533 104.602 53.38C104.482 53.0533 104.319 52.8233 104.112 52.69C103.906 52.5567 103.649 52.49 103.342 52.49C102.942 52.49 102.616 52.6133 102.362 52.86C102.116 53.1067 101.982 53.5033 101.962 54.05C101.956 54.29 101.956 54.5233 101.962 54.75C101.982 55.3033 102.116 55.7033 102.362 55.95C102.616 56.19 102.942 56.31 103.342 56.31C103.649 56.31 103.906 56.2433 104.112 56.11C104.319 55.9767 104.482 55.7467 104.602 55.42C104.636 55.3467 104.669 55.2967 104.702 55.27C104.736 55.2367 104.786 55.22 104.852 55.22H105.332C105.399 55.22 105.456 55.24 105.502 55.28C105.549 55.32 105.569 55.3733 105.562 55.44C105.556 55.58 105.526 55.7233 105.472 55.87C105.419 56.0167 105.332 56.1667 105.212 56.32C105.099 56.4667 104.956 56.6 104.782 56.72C104.609 56.8333 104.399 56.9267 104.152 57C103.912 57.0667 103.639 57.1 103.332 57.1ZM106.98 57C106.913 57 106.856 56.98 106.81 56.94C106.77 56.8933 106.75 56.8367 106.75 56.77V52.03C106.75 51.9633 106.77 51.91 106.81 51.87C106.856 51.8233 106.913 51.8 106.98 51.8H107.46C107.526 51.8 107.58 51.8233 107.62 51.87C107.66 51.91 107.68 51.9633 107.68 52.03V56.77C107.68 56.8367 107.66 56.8933 107.62 56.94C107.58 56.98 107.526 57 107.46 57H106.98ZM106.9 50.83C106.833 50.83 106.776 50.81 106.73 50.77C106.69 50.7233 106.67 50.6667 106.67 50.6V50.06C106.67 49.9933 106.69 49.94 106.73 49.9C106.776 49.8533 106.833 49.83 106.9 49.83H107.53C107.596 49.83 107.65 49.8533 107.69 49.9C107.736 49.94 107.76 49.9933 107.76 50.06V50.6C107.76 50.6667 107.736 50.7233 107.69 50.77C107.65 50.81 107.596 50.83 107.53 50.83H106.9ZM111.261 57.1C110.575 57.1 110.028 56.89 109.621 56.47C109.215 56.0433 108.991 55.4633 108.951 54.73C108.945 54.6433 108.941 54.5333 108.941 54.4C108.941 54.26 108.945 54.1467 108.951 54.06C108.978 53.5867 109.088 53.1733 109.281 52.82C109.475 52.46 109.738 52.1833 110.071 51.99C110.411 51.7967 110.808 51.7 111.261 51.7C111.768 51.7 112.191 51.8067 112.531 52.02C112.878 52.2333 113.141 52.5367 113.321 52.93C113.501 53.3233 113.591 53.7833 113.591 54.31V54.48C113.591 54.5533 113.568 54.61 113.521 54.65C113.481 54.69 113.428 54.71 113.361 54.71H109.901C109.901 54.7167 109.901 54.73 109.901 54.75C109.901 54.77 109.901 54.7867 109.901 54.8C109.915 55.0733 109.975 55.33 110.081 55.57C110.188 55.8033 110.341 55.9933 110.541 56.14C110.741 56.2867 110.981 56.36 111.261 56.36C111.501 56.36 111.701 56.3233 111.861 56.25C112.021 56.1767 112.151 56.0967 112.251 56.01C112.351 55.9167 112.418 55.8467 112.451 55.8C112.511 55.7133 112.558 55.6633 112.591 55.65C112.625 55.63 112.678 55.62 112.751 55.62H113.231C113.298 55.62 113.351 55.64 113.391 55.68C113.438 55.7133 113.458 55.7633 113.451 55.83C113.445 55.93 113.391 56.0533 113.291 56.2C113.191 56.34 113.048 56.48 112.861 56.62C112.675 56.76 112.448 56.8767 112.181 56.97C111.915 57.0567 111.608 57.1 111.261 57.1ZM109.901 54.02H112.641V53.99C112.641 53.69 112.585 53.4233 112.471 53.19C112.365 52.9567 112.208 52.7733 112.001 52.64C111.795 52.5 111.548 52.43 111.261 52.43C110.975 52.43 110.728 52.5 110.521 52.64C110.321 52.7733 110.168 52.9567 110.061 53.19C109.955 53.4233 109.901 53.69 109.901 53.99V54.02ZM109.901 51.05C109.801 51.05 109.751 51.01 109.751 50.93C109.751 50.8767 109.788 50.8133 109.861 50.74L110.781 49.82C110.848 49.7467 110.905 49.7067 110.951 49.7C111.005 49.6867 111.058 49.68 111.111 49.68H111.411C111.471 49.68 111.525 49.6867 111.571 49.7C111.618 49.7067 111.675 49.7467 111.741 49.82L112.661 50.74C112.728 50.8133 112.761 50.8767 112.761 50.93C112.761 51.01 112.715 51.05 112.621 51.05H112.361C112.315 51.05 112.265 51.0433 112.211 51.03C112.158 51.0167 112.115 51 112.081 50.98L111.261 50.41L110.441 50.98C110.401 51 110.355 51.0167 110.301 51.03C110.255 51.0433 110.208 51.05 110.161 51.05H109.901ZM115.017 57C114.95 57 114.894 56.98 114.847 56.94C114.807 56.8933 114.787 56.8367 114.787 56.77V52.03C114.787 51.9633 114.807 51.91 114.847 51.87C114.894 51.8233 114.95 51.8 115.017 51.8H115.487C115.554 51.8 115.607 51.8233 115.647 51.87C115.694 51.91 115.717 51.9633 115.717 52.03V52.47C115.89 52.2433 116.107 52.06 116.367 51.92C116.634 51.7733 116.974 51.7 117.387 51.7C117.82 51.7 118.187 51.7967 118.487 51.99C118.794 52.1767 119.024 52.44 119.177 52.78C119.33 53.1133 119.407 53.5033 119.407 53.95V56.77C119.407 56.8367 119.387 56.8933 119.347 56.94C119.307 56.98 119.254 57 119.187 57H118.687C118.62 57 118.564 56.98 118.517 56.94C118.477 56.8933 118.457 56.8367 118.457 56.77V54C118.457 53.5333 118.344 53.17 118.117 52.91C117.89 52.6433 117.557 52.51 117.117 52.51C116.704 52.51 116.37 52.6433 116.117 52.91C115.87 53.17 115.747 53.5333 115.747 54V56.77C115.747 56.8367 115.724 56.8933 115.677 56.94C115.637 56.98 115.584 57 115.517 57H115.017ZM122.951 57.1C122.478 57.1 122.068 57.01 121.721 56.83C121.381 56.6433 121.118 56.38 120.931 56.04C120.745 55.6933 120.645 55.28 120.631 54.8C120.625 54.7 120.621 54.5667 120.621 54.4C120.621 54.2333 120.625 54.1 120.631 54C120.645 53.52 120.745 53.11 120.931 52.77C121.118 52.4233 121.381 52.16 121.721 51.98C122.068 51.7933 122.478 51.7 122.951 51.7C123.338 51.7 123.668 51.7533 123.941 51.86C124.221 51.9667 124.451 52.1033 124.631 52.27C124.811 52.4367 124.945 52.6167 125.031 52.81C125.125 53.0033 125.175 53.1867 125.181 53.36C125.188 53.4267 125.168 53.48 125.121 53.52C125.075 53.56 125.018 53.58 124.951 53.58H124.471C124.405 53.58 124.355 53.5667 124.321 53.54C124.288 53.5067 124.255 53.4533 124.221 53.38C124.101 53.0533 123.938 52.8233 123.731 52.69C123.525 52.5567 123.268 52.49 122.961 52.49C122.561 52.49 122.235 52.6133 121.981 52.86C121.735 53.1067 121.601 53.5033 121.581 54.05C121.575 54.29 121.575 54.5233 121.581 54.75C121.601 55.3033 121.735 55.7033 121.981 55.95C122.235 56.19 122.561 56.31 122.961 56.31C123.268 56.31 123.525 56.2433 123.731 56.11C123.938 55.9767 124.101 55.7467 124.221 55.42C124.255 55.3467 124.288 55.2967 124.321 55.27C124.355 55.2367 124.405 55.22 124.471 55.22H124.951C125.018 55.22 125.075 55.24 125.121 55.28C125.168 55.32 125.188 55.3733 125.181 55.44C125.175 55.58 125.145 55.7233 125.091 55.87C125.038 56.0167 124.951 56.1667 124.831 56.32C124.718 56.4667 124.575 56.6 124.401 56.72C124.228 56.8333 124.018 56.9267 123.771 57C123.531 57.0667 123.258 57.1 122.951 57.1ZM126.599 57C126.532 57 126.476 56.98 126.429 56.94C126.389 56.8933 126.369 56.8367 126.369 56.77V52.03C126.369 51.9633 126.389 51.91 126.429 51.87C126.476 51.8233 126.532 51.8 126.599 51.8H127.079C127.146 51.8 127.199 51.8233 127.239 51.87C127.279 51.91 127.299 51.9633 127.299 52.03V56.77C127.299 56.8367 127.279 56.8933 127.239 56.94C127.199 56.98 127.146 57 127.079 57H126.599ZM126.519 50.83C126.452 50.83 126.396 50.81 126.349 50.77C126.309 50.7233 126.289 50.6667 126.289 50.6V50.06C126.289 49.9933 126.309 49.94 126.349 49.9C126.396 49.8533 126.452 49.83 126.519 49.83H127.149C127.216 49.83 127.269 49.8533 127.309 49.9C127.356 49.94 127.379 49.9933 127.379 50.06V50.6C127.379 50.6667 127.356 50.7233 127.309 50.77C127.269 50.81 127.216 50.83 127.149 50.83H126.519ZM130.241 57.1C129.907 57.1 129.604 57.0333 129.331 56.9C129.057 56.7667 128.837 56.5867 128.671 56.36C128.504 56.1333 128.421 55.8767 128.421 55.59C128.421 55.13 128.607 54.7633 128.981 54.49C129.354 54.2167 129.841 54.0367 130.441 53.95L131.931 53.74V53.45C131.931 53.13 131.837 52.88 131.651 52.7C131.471 52.52 131.174 52.43 130.761 52.43C130.461 52.43 130.217 52.49 130.031 52.61C129.851 52.73 129.724 52.8833 129.651 53.07C129.611 53.17 129.541 53.22 129.441 53.22H128.991C128.917 53.22 128.861 53.2 128.821 53.16C128.787 53.1133 128.771 53.06 128.771 53C128.771 52.9 128.807 52.7767 128.881 52.63C128.961 52.4833 129.081 52.34 129.241 52.2C129.401 52.06 129.604 51.9433 129.851 51.85C130.104 51.75 130.411 51.7 130.771 51.7C131.171 51.7 131.507 51.7533 131.781 51.86C132.054 51.96 132.267 52.0967 132.421 52.27C132.581 52.4433 132.694 52.64 132.761 52.86C132.834 53.08 132.871 53.3033 132.871 53.53V56.77C132.871 56.8367 132.847 56.8933 132.801 56.94C132.761 56.98 132.707 57 132.641 57H132.181C132.107 57 132.051 56.98 132.011 56.94C131.971 56.8933 131.951 56.8367 131.951 56.77V56.34C131.864 56.46 131.747 56.58 131.601 56.7C131.454 56.8133 131.271 56.91 131.051 56.99C130.831 57.0633 130.561 57.1 130.241 57.1ZM130.451 56.35C130.724 56.35 130.974 56.2933 131.201 56.18C131.427 56.06 131.604 55.8767 131.731 55.63C131.864 55.3833 131.931 55.0733 131.931 54.7V54.42L130.771 54.59C130.297 54.6567 129.941 54.77 129.701 54.93C129.461 55.0833 129.341 55.28 129.341 55.52C129.341 55.7067 129.394 55.8633 129.501 55.99C129.614 56.11 129.754 56.2 129.921 56.26C130.094 56.32 130.271 56.35 130.451 56.35Z" fill="black"/>
<path d="M53.288 190.944C52.7173 190.944 52.232 190.848 51.832 190.656C51.432 190.464 51.12 190.187 50.896 189.824C50.672 189.456 50.5333 189.016 50.48 188.504C50.4747 188.429 50.4693 188.331 50.464 188.208C50.4587 188.085 50.456 187.955 50.456 187.816C50.456 187.677 50.4587 187.547 50.464 187.424C50.4693 187.301 50.4747 187.205 50.48 187.136C50.5173 186.773 50.6053 186.44 50.744 186.136C50.8827 185.832 51.0667 185.573 51.296 185.36C51.5307 185.141 51.8107 184.973 52.136 184.856C52.4613 184.739 52.8347 184.68 53.256 184.68C53.7413 184.68 54.16 184.736 54.512 184.848C54.8693 184.96 55.1653 185.123 55.4 185.336C55.64 185.549 55.8213 185.808 55.944 186.112C56.0667 186.416 56.1387 186.757 56.16 187.136C56.1707 187.275 56.176 187.413 56.176 187.552C56.176 187.691 56.1733 187.819 56.168 187.936C56.168 188.048 56.1653 188.131 56.16 188.184C56.144 188.445 56.0907 188.664 56 188.84C55.9093 189.016 55.784 189.149 55.624 189.24C55.4693 189.325 55.2853 189.368 55.072 189.368C54.896 189.368 54.7467 189.339 54.624 189.28C54.5013 189.221 54.4053 189.157 54.336 189.088C54.2667 189.013 54.216 188.955 54.184 188.912C54.1413 188.981 54.08 189.059 54 189.144C53.9253 189.229 53.8213 189.301 53.688 189.36C53.5547 189.419 53.3813 189.448 53.168 189.448C52.7733 189.448 52.4587 189.307 52.224 189.024C51.9893 188.741 51.872 188.339 51.872 187.816C51.872 187.293 51.9893 186.891 52.224 186.608C52.4587 186.32 52.7733 186.176 53.168 186.176C53.3867 186.176 53.5573 186.216 53.68 186.296C53.808 186.376 53.9093 186.464 53.984 186.56V186.424C53.984 186.371 54 186.328 54.032 186.296C54.0693 186.259 54.1147 186.24 54.168 186.24H54.384C54.4373 186.24 54.48 186.259 54.512 186.296C54.5493 186.328 54.568 186.371 54.568 186.424V188.128C54.568 188.357 54.616 188.528 54.712 188.64C54.808 188.752 54.928 188.808 55.072 188.808C55.216 188.808 55.3227 188.768 55.392 188.688C55.4667 188.608 55.5147 188.515 55.536 188.408C55.5627 188.296 55.576 188.203 55.576 188.128C55.5813 188.048 55.5867 187.92 55.592 187.744C55.5973 187.568 55.592 187.379 55.576 187.176C55.544 186.755 55.4453 186.4 55.28 186.112C55.12 185.824 54.8747 185.605 54.544 185.456C54.2187 185.307 53.7893 185.232 53.256 185.232C52.8187 185.232 52.4453 185.312 52.136 185.472C51.8267 185.627 51.5813 185.848 51.4 186.136C51.224 186.424 51.112 186.771 51.064 187.176C51.0533 187.267 51.0453 187.395 51.04 187.56C51.04 187.725 51.04 187.893 51.04 188.064C51.0453 188.229 51.0533 188.363 51.064 188.464C51.128 189.077 51.3467 189.552 51.72 189.888C52.0987 190.219 52.6213 190.384 53.288 190.384C53.672 190.384 53.976 190.352 54.2 190.288C54.424 190.229 54.5947 190.157 54.712 190.072C54.8347 189.992 54.9333 189.925 55.008 189.872C55.0347 189.851 55.064 189.829 55.096 189.808C55.128 189.781 55.168 189.768 55.216 189.768H55.536C55.584 189.768 55.624 189.787 55.656 189.824C55.6933 189.856 55.712 189.896 55.712 189.944C55.712 189.965 55.7067 189.984 55.696 190C55.6907 190.021 55.68 190.04 55.664 190.056C55.5253 190.211 55.352 190.355 55.144 190.488C54.936 190.627 54.68 190.736 54.376 190.816C54.0773 190.901 53.7147 190.944 53.288 190.944ZM53.216 188.888C53.4987 188.888 53.696 188.792 53.808 188.6C53.9253 188.403 53.984 188.141 53.984 187.816C53.984 187.491 53.9253 187.229 53.808 187.032C53.696 186.835 53.4987 186.736 53.216 186.736C52.944 186.736 52.7493 186.835 52.632 187.032C52.5147 187.229 52.456 187.491 52.456 187.816C52.456 188.008 52.48 188.187 52.528 188.352C52.5813 188.512 52.664 188.643 52.776 188.744C52.888 188.84 53.0347 188.888 53.216 188.888ZM58.9043 190.08C58.3549 190.08 57.9176 189.912 57.5923 189.576C57.2669 189.235 57.0883 188.771 57.0563 188.184C57.0509 188.115 57.0483 188.027 57.0483 187.92C57.0483 187.808 57.0509 187.717 57.0563 187.648C57.0776 187.269 57.1656 186.939 57.3203 186.656C57.4749 186.368 57.6856 186.147 57.9523 185.992C58.2243 185.837 58.5416 185.76 58.9043 185.76C59.3096 185.76 59.6483 185.845 59.9203 186.016C60.1976 186.187 60.4083 186.429 60.5523 186.744C60.6963 187.059 60.7682 187.427 60.7682 187.848V187.984C60.7682 188.043 60.7496 188.088 60.7123 188.12C60.6803 188.152 60.6376 188.168 60.5843 188.168H57.8163C57.8163 188.173 57.8163 188.184 57.8163 188.2C57.8163 188.216 57.8163 188.229 57.8163 188.24C57.8269 188.459 57.8749 188.664 57.9603 188.856C58.0456 189.043 58.1683 189.195 58.3283 189.312C58.4883 189.429 58.6803 189.488 58.9043 189.488C59.0963 189.488 59.2563 189.459 59.3843 189.4C59.5123 189.341 59.6163 189.277 59.6963 189.208C59.7763 189.133 59.8296 189.077 59.8563 189.04C59.9043 188.971 59.9416 188.931 59.9683 188.92C59.9949 188.904 60.0376 188.896 60.0963 188.896H60.4803C60.5336 188.896 60.5763 188.912 60.6083 188.944C60.6456 188.971 60.6616 189.011 60.6562 189.064C60.6509 189.144 60.6083 189.243 60.5283 189.36C60.4483 189.472 60.3336 189.584 60.1843 189.696C60.0349 189.808 59.8536 189.901 59.6403 189.976C59.4269 190.045 59.1816 190.08 58.9043 190.08ZM57.8163 187.616H60.0083V187.592C60.0083 187.352 59.9629 187.139 59.8723 186.952C59.7869 186.765 59.6616 186.619 59.4963 186.512C59.3309 186.4 59.1336 186.344 58.9043 186.344C58.6749 186.344 58.4776 186.4 58.3123 186.512C58.1523 186.619 58.0296 186.765 57.9443 186.952C57.8589 187.139 57.8163 187.352 57.8163 187.592V187.616ZM63.4048 190.08C63.0261 190.08 62.6981 190.008 62.4208 189.864C62.1488 189.715 61.9381 189.504 61.7888 189.232C61.6395 188.955 61.5595 188.624 61.5488 188.24C61.5435 188.16 61.5408 188.053 61.5408 187.92C61.5408 187.787 61.5435 187.68 61.5488 187.6C61.5595 187.216 61.6395 186.888 61.7888 186.616C61.9381 186.339 62.1488 186.128 62.4208 185.984C62.6981 185.835 63.0261 185.76 63.4048 185.76C63.7141 185.76 63.9781 185.803 64.1968 185.888C64.4208 185.973 64.6048 186.083 64.7488 186.216C64.8928 186.349 64.9995 186.493 65.0688 186.648C65.1435 186.803 65.1835 186.949 65.1888 187.088C65.1941 187.141 65.1781 187.184 65.1408 187.216C65.1035 187.248 65.0581 187.264 65.0048 187.264H64.6208C64.5675 187.264 64.5275 187.253 64.5008 187.232C64.4741 187.205 64.4475 187.163 64.4208 187.104C64.3248 186.843 64.1941 186.659 64.0288 186.552C63.8635 186.445 63.6581 186.392 63.4128 186.392C63.0928 186.392 62.8315 186.491 62.6288 186.688C62.4315 186.885 62.3248 187.203 62.3088 187.64C62.3035 187.832 62.3035 188.019 62.3088 188.2C62.3248 188.643 62.4315 188.963 62.6288 189.16C62.8315 189.352 63.0928 189.448 63.4128 189.448C63.6581 189.448 63.8635 189.395 64.0288 189.288C64.1941 189.181 64.3248 188.997 64.4208 188.736C64.4475 188.677 64.4741 188.637 64.5008 188.616C64.5275 188.589 64.5675 188.576 64.6208 188.576H65.0048C65.0581 188.576 65.1035 188.592 65.1408 188.624C65.1781 188.656 65.1941 188.699 65.1888 188.752C65.1835 188.864 65.1595 188.979 65.1168 189.096C65.0741 189.213 65.0048 189.333 64.9088 189.456C64.8181 189.573 64.7035 189.68 64.5648 189.776C64.4261 189.867 64.2581 189.941 64.0608 190C63.8688 190.053 63.6501 190.08 63.4048 190.08ZM67.8429 190.08C67.4375 190.08 67.0989 190.003 66.8269 189.848C66.5549 189.693 66.3469 189.48 66.2029 189.208C66.0589 188.931 65.9789 188.616 65.9629 188.264C65.9575 188.173 65.9549 188.059 65.9549 187.92C65.9549 187.776 65.9575 187.661 65.9629 187.576C65.9789 187.219 66.0589 186.904 66.2029 186.632C66.3522 186.36 66.5629 186.147 66.8349 185.992C67.1069 185.837 67.4429 185.76 67.8429 185.76C68.2429 185.76 68.5789 185.837 68.8509 185.992C69.1229 186.147 69.3309 186.36 69.4749 186.632C69.6242 186.904 69.7069 187.219 69.7229 187.576C69.7282 187.661 69.7309 187.776 69.7309 187.92C69.7309 188.059 69.7282 188.173 69.7229 188.264C69.7069 188.616 69.6269 188.931 69.4829 189.208C69.3389 189.48 69.1309 189.693 68.8589 189.848C68.5869 190.003 68.2482 190.08 67.8429 190.08ZM67.8429 189.464C68.1735 189.464 68.4375 189.36 68.6349 189.152C68.8322 188.939 68.9389 188.629 68.9549 188.224C68.9602 188.144 68.9629 188.043 68.9629 187.92C68.9629 187.797 68.9602 187.696 68.9549 187.616C68.9389 187.211 68.8322 186.904 68.6349 186.696C68.4375 186.483 68.1735 186.376 67.8429 186.376C67.5122 186.376 67.2455 186.483 67.0429 186.696C66.8455 186.904 66.7415 187.211 66.7309 187.616C66.7255 187.696 66.7229 187.797 66.7229 187.92C66.7229 188.043 66.7255 188.144 66.7309 188.224C66.7415 188.629 66.8455 188.939 67.0429 189.152C67.2455 189.36 67.5122 189.464 67.8429 189.464ZM72.3176 190C72.0189 190 71.7762 189.944 71.5896 189.832C71.4029 189.715 71.2669 189.552 71.1816 189.344C71.0962 189.131 71.0536 188.88 71.0536 188.592V186.48H70.4296C70.3762 186.48 70.3309 186.464 70.2936 186.432C70.2616 186.395 70.2456 186.349 70.2456 186.296V186.024C70.2456 185.971 70.2616 185.928 70.2936 185.896C70.3309 185.859 70.3762 185.84 70.4296 185.84H71.0536V184.504C71.0536 184.451 71.0696 184.408 71.1016 184.376C71.1389 184.339 71.1842 184.32 71.2376 184.32H71.6136C71.6669 184.32 71.7096 184.339 71.7416 184.376C71.7789 184.408 71.7976 184.451 71.7976 184.504V185.84H72.7896C72.8429 185.84 72.8856 185.859 72.9176 185.896C72.9549 185.928 72.9736 185.971 72.9736 186.024V186.296C72.9736 186.349 72.9549 186.395 72.9176 186.432C72.8856 186.464 72.8429 186.48 72.7896 186.48H71.7976V188.536C71.7976 188.787 71.8402 188.984 71.9256 189.128C72.0109 189.272 72.1629 189.344 72.3816 189.344H72.8696C72.9229 189.344 72.9656 189.363 72.9976 189.4C73.0349 189.432 73.0536 189.475 73.0536 189.528V189.816C73.0536 189.869 73.0349 189.915 72.9976 189.952C72.9656 189.984 72.9229 190 72.8696 190H72.3176ZM75.5226 190.08C75.1172 190.08 74.7786 190.003 74.5066 189.848C74.2346 189.693 74.0266 189.48 73.8826 189.208C73.7386 188.931 73.6586 188.616 73.6426 188.264C73.6372 188.173 73.6346 188.059 73.6346 187.92C73.6346 187.776 73.6372 187.661 73.6426 187.576C73.6586 187.219 73.7386 186.904 73.8826 186.632C74.0319 186.36 74.2426 186.147 74.5146 185.992C74.7866 185.837 75.1226 185.76 75.5226 185.76C75.9226 185.76 76.2586 185.837 76.5306 185.992C76.8026 186.147 77.0106 186.36 77.1546 186.632C77.3039 186.904 77.3866 187.219 77.4026 187.576C77.4079 187.661 77.4106 187.776 77.4106 187.92C77.4106 188.059 77.4079 188.173 77.4026 188.264C77.3866 188.616 77.3066 188.931 77.1626 189.208C77.0186 189.48 76.8106 189.693 76.5386 189.848C76.2666 190.003 75.9279 190.08 75.5226 190.08ZM75.5226 189.464C75.8532 189.464 76.1172 189.36 76.3146 189.152C76.5119 188.939 76.6186 188.629 76.6346 188.224C76.6399 188.144 76.6426 188.043 76.6426 187.92C76.6426 187.797 76.6399 187.696 76.6346 187.616C76.6186 187.211 76.5119 186.904 76.3146 186.696C76.1172 186.483 75.8532 186.376 75.5226 186.376C75.1919 186.376 74.9252 186.483 74.7226 186.696C74.5252 186.904 74.4212 187.211 74.4106 187.616C74.4052 187.696 74.4026 187.797 74.4026 187.92C74.4026 188.043 74.4052 188.144 74.4106 188.224C74.4212 188.629 74.5252 188.939 74.7226 189.152C74.9252 189.36 75.1919 189.464 75.5226 189.464ZM79.9643 190.08C79.623 190.08 79.3323 190.005 79.0923 189.856C78.8576 189.701 78.679 189.488 78.5563 189.216C78.4336 188.944 78.3723 188.632 78.3723 188.28V186.024C78.3723 185.971 78.3883 185.928 78.4203 185.896C78.4576 185.859 78.503 185.84 78.5563 185.84H78.9563C79.0096 185.84 79.0523 185.859 79.0843 185.896C79.1216 185.928 79.1403 185.971 79.1403 186.024V188.24C79.1403 189.035 79.487 189.432 80.1803 189.432C80.511 189.432 80.775 189.328 80.9723 189.12C81.175 188.907 81.2763 188.613 81.2763 188.24V186.024C81.2763 185.971 81.2923 185.928 81.3243 185.896C81.3616 185.859 81.407 185.84 81.4603 185.84H81.8523C81.911 185.84 81.9563 185.859 81.9883 185.896C82.0203 185.928 82.0363 185.971 82.0363 186.024V189.816C82.0363 189.869 82.0203 189.915 81.9883 189.952C81.9563 189.984 81.911 190 81.8523 190H81.4843C81.431 190 81.3856 189.984 81.3483 189.952C81.3163 189.915 81.3003 189.869 81.3003 189.816V189.464C81.1563 189.651 80.9803 189.8 80.7723 189.912C80.5696 190.024 80.3003 190.08 79.9643 190.08ZM83.4088 190C83.3555 190 83.3101 189.984 83.2728 189.952C83.2408 189.915 83.2248 189.869 83.2248 189.816V186.032C83.2248 185.979 83.2408 185.933 83.2728 185.896C83.3101 185.859 83.3555 185.84 83.4088 185.84H83.7768C83.8301 185.84 83.8755 185.859 83.9128 185.896C83.9501 185.933 83.9688 185.979 83.9688 186.032V186.384C84.0755 186.203 84.2221 186.067 84.4088 185.976C84.5955 185.885 84.8195 185.84 85.0808 185.84H85.4008C85.4541 185.84 85.4968 185.859 85.5288 185.896C85.5608 185.928 85.5768 185.971 85.5768 186.024V186.352C85.5768 186.405 85.5608 186.448 85.5288 186.48C85.4968 186.512 85.4541 186.528 85.4008 186.528H84.9208C84.6328 186.528 84.4061 186.613 84.2408 186.784C84.0755 186.949 83.9928 187.176 83.9928 187.464V189.816C83.9928 189.869 83.9741 189.915 83.9368 189.952C83.8995 189.984 83.8541 190 83.8008 190H83.4088ZM85.9622 190C85.9089 190 85.8635 189.984 85.8262 189.952C85.7942 189.915 85.7782 189.869 85.7782 189.816V189.24C85.7782 189.187 85.7942 189.144 85.8262 189.112C85.8635 189.075 85.9089 189.056 85.9622 189.056H86.5382C86.5915 189.056 86.6342 189.075 86.6662 189.112C86.7035 189.144 86.7222 189.187 86.7222 189.24V189.816C86.7222 189.869 86.7035 189.915 86.6662 189.952C86.6342 189.984 86.5915 190 86.5382 190H85.9622ZM88.2545 190C88.2012 190 88.1558 189.984 88.1185 189.952C88.0865 189.915 88.0705 189.869 88.0705 189.816V186.48H87.3905C87.3372 186.48 87.2918 186.464 87.2545 186.432C87.2225 186.395 87.2065 186.349 87.2065 186.296V186.024C87.2065 185.971 87.2225 185.928 87.2545 185.896C87.2918 185.859 87.3372 185.84 87.3905 185.84H88.0705V185.44C88.0705 185.168 88.1158 184.931 88.2065 184.728C88.2972 184.52 88.4412 184.36 88.6385 184.248C88.8412 184.136 89.1105 184.08 89.4465 184.08H89.9265C89.9798 184.08 90.0225 184.099 90.0545 184.136C90.0865 184.168 90.1025 184.211 90.1025 184.264V184.536C90.1025 184.589 90.0865 184.635 90.0545 184.672C90.0225 184.704 89.9798 184.72 89.9265 184.72H89.4625C89.2118 184.72 89.0412 184.787 88.9505 184.92C88.8598 185.048 88.8145 185.235 88.8145 185.48V185.84H89.8465C89.8998 185.84 89.9425 185.859 89.9745 185.896C90.0065 185.928 90.0225 185.971 90.0225 186.024V186.296C90.0225 186.349 90.0065 186.395 89.9745 186.432C89.9425 186.464 89.8998 186.48 89.8465 186.48H88.8145V189.816C88.8145 189.869 88.7958 189.915 88.7585 189.952C88.7265 189.984 88.6838 190 88.6305 190H88.2545ZM92.3585 190.08C91.9532 190.08 91.6145 190.003 91.3425 189.848C91.0705 189.693 90.8625 189.48 90.7185 189.208C90.5745 188.931 90.4945 188.616 90.4785 188.264C90.4732 188.173 90.4705 188.059 90.4705 187.92C90.4705 187.776 90.4732 187.661 90.4785 187.576C90.4945 187.219 90.5745 186.904 90.7185 186.632C90.8678 186.36 91.0785 186.147 91.3505 185.992C91.6225 185.837 91.9585 185.76 92.3585 185.76C92.7585 185.76 93.0945 185.837 93.3665 185.992C93.6385 186.147 93.8465 186.36 93.9905 186.632C94.1398 186.904 94.2225 187.219 94.2385 187.576C94.2438 187.661 94.2465 187.776 94.2465 187.92C94.2465 188.059 94.2438 188.173 94.2385 188.264C94.2225 188.616 94.1425 188.931 93.9985 189.208C93.8545 189.48 93.6465 189.693 93.3745 189.848C93.1025 190.003 92.7638 190.08 92.3585 190.08ZM92.3585 189.464C92.6892 189.464 92.9532 189.36 93.1505 189.152C93.3478 188.939 93.4545 188.629 93.4705 188.224C93.4758 188.144 93.4785 188.043 93.4785 187.92C93.4785 187.797 93.4758 187.696 93.4705 187.616C93.4545 187.211 93.3478 186.904 93.1505 186.696C92.9532 186.483 92.6892 186.376 92.3585 186.376C92.0278 186.376 91.7612 186.483 91.5585 186.696C91.3612 186.904 91.2572 187.211 91.2465 187.616C91.2412 187.696 91.2385 187.797 91.2385 187.92C91.2385 188.043 91.2412 188.144 91.2465 188.224C91.2572 188.629 91.3612 188.939 91.5585 189.152C91.7612 189.36 92.0278 189.464 92.3585 189.464ZM95.4323 190C95.3789 190 95.3336 189.984 95.2963 189.952C95.2643 189.915 95.2483 189.869 95.2483 189.816V186.032C95.2483 185.979 95.2643 185.933 95.2963 185.896C95.3336 185.859 95.3789 185.84 95.4323 185.84H95.8003C95.8536 185.84 95.8989 185.859 95.9363 185.896C95.9736 185.933 95.9923 185.979 95.9923 186.032V186.384C96.0989 186.203 96.2456 186.067 96.4323 185.976C96.6189 185.885 96.8429 185.84 97.1043 185.84H97.4243C97.4776 185.84 97.5203 185.859 97.5523 185.896C97.5843 185.928 97.6003 185.971 97.6003 186.024V186.352C97.6003 186.405 97.5843 186.448 97.5523 186.48C97.5203 186.512 97.4776 186.528 97.4243 186.528H96.9443C96.6563 186.528 96.4296 186.613 96.2643 186.784C96.0989 186.949 96.0163 187.176 96.0163 187.464V189.816C96.0163 189.869 95.9976 189.915 95.9603 189.952C95.9229 189.984 95.8776 190 95.8243 190H95.4323ZM99.9113 190C99.6126 190 99.37 189.944 99.1833 189.832C98.9966 189.715 98.8606 189.552 98.7753 189.344C98.69 189.131 98.6473 188.88 98.6473 188.592V186.48H98.0233C97.97 186.48 97.9246 186.464 97.8873 186.432C97.8553 186.395 97.8393 186.349 97.8393 186.296V186.024C97.8393 185.971 97.8553 185.928 97.8873 185.896C97.9246 185.859 97.97 185.84 98.0233 185.84H98.6473V184.504C98.6473 184.451 98.6633 184.408 98.6953 184.376C98.7326 184.339 98.778 184.32 98.8313 184.32H99.2073C99.2606 184.32 99.3033 184.339 99.3353 184.376C99.3726 184.408 99.3913 184.451 99.3913 184.504V185.84H100.383C100.437 185.84 100.479 185.859 100.511 185.896C100.549 185.928 100.567 185.971 100.567 186.024V186.296C100.567 186.349 100.549 186.395 100.511 186.432C100.479 186.464 100.437 186.48 100.383 186.48H99.3913V188.536C99.3913 188.787 99.434 188.984 99.5193 189.128C99.6046 189.272 99.7566 189.344 99.9753 189.344H100.463C100.517 189.344 100.559 189.363 100.591 189.4C100.629 189.432 100.647 189.475 100.647 189.528V189.816C100.647 189.869 100.629 189.915 100.591 189.952C100.559 189.984 100.517 190 100.463 190H99.9113ZM102.572 190.08C102.306 190.08 102.063 190.027 101.844 189.92C101.626 189.813 101.45 189.669 101.316 189.488C101.183 189.307 101.116 189.101 101.116 188.872C101.116 188.504 101.266 188.211 101.564 187.992C101.863 187.773 102.252 187.629 102.732 187.56L103.924 187.392V187.16C103.924 186.904 103.85 186.704 103.7 186.56C103.556 186.416 103.319 186.344 102.988 186.344C102.748 186.344 102.554 186.392 102.404 186.488C102.26 186.584 102.159 186.707 102.1 186.856C102.068 186.936 102.012 186.976 101.932 186.976H101.572C101.514 186.976 101.468 186.96 101.436 186.928C101.41 186.891 101.396 186.848 101.396 186.8C101.396 186.72 101.426 186.621 101.484 186.504C101.548 186.387 101.644 186.272 101.772 186.16C101.9 186.048 102.063 185.955 102.26 185.88C102.463 185.8 102.708 185.76 102.996 185.76C103.316 185.76 103.586 185.803 103.804 185.888C104.023 185.968 104.194 186.077 104.316 186.216C104.444 186.355 104.535 186.512 104.588 186.688C104.647 186.864 104.676 187.043 104.676 187.224V189.816C104.676 189.869 104.658 189.915 104.62 189.952C104.588 189.984 104.546 190 104.492 190H104.124C104.066 190 104.02 189.984 103.988 189.952C103.956 189.915 103.94 189.869 103.94 189.816V189.472C103.871 189.568 103.778 189.664 103.66 189.76C103.543 189.851 103.396 189.928 103.22 189.992C103.044 190.051 102.828 190.08 102.572 190.08ZM102.74 189.48C102.959 189.48 103.159 189.435 103.34 189.344C103.522 189.248 103.663 189.101 103.764 188.904C103.871 188.707 103.924 188.459 103.924 188.16V187.936L102.996 188.072C102.618 188.125 102.332 188.216 102.14 188.344C101.948 188.467 101.852 188.624 101.852 188.816C101.852 188.965 101.895 189.091 101.98 189.192C102.071 189.288 102.183 189.36 102.316 189.408C102.455 189.456 102.596 189.48 102.74 189.48ZM106.018 190C105.965 190 105.92 189.984 105.882 189.952C105.85 189.915 105.834 189.869 105.834 189.816V184.504C105.834 184.451 105.85 184.408 105.882 184.376C105.92 184.339 105.965 184.32 106.018 184.32H106.394C106.453 184.32 106.498 184.339 106.53 184.376C106.562 184.408 106.578 184.451 106.578 184.504V189.816C106.578 189.869 106.562 189.915 106.53 189.952C106.498 189.984 106.453 190 106.394 190H106.018Z" fill="black"/>
<path d="M63.3129 162.278C63.403 159.596 63.4932 156.913 63.5833 154.231C63.8725 145.619 68.2604 137.379 72.5424 130.075C75.0304 125.831 77.878 121.62 81.2891 118.056C81.8105 117.512 82.3981 116.891 83.0092 116.448C83.4807 116.106 82.9724 116.614 82.8808 116.782" stroke="black" stroke-width="2" stroke-linecap="round"/>
<path d="M61.0612 145.57C56.4392 145.194 53.875 139.624 53.9136 135.555C53.956 131.082 54.2143 127.252 56.0893 123.094C59.1348 116.34 64.1567 109.83 69.3876 104.603C78.5089 95.4886 88.6453 88.3241 101.891 87.8503C104.508 87.7567 107.107 87.8434 109.723 87.9312C109.906 87.9374 111.677 87.9054 111.016 88.2089" stroke="black" stroke-width="2" stroke-linecap="round"/>
<path d="M70.9825 150.118C75.3599 150.265 79.4816 147.188 82.2495 144.054C85.5854 140.276 87.7388 135.578 88.9194 130.703C90.1767 125.511 90.2037 120.018 90.4195 114.718C91.0396 99.4848 89.8466 90.3822 89.9676 75.1423" stroke="black" stroke-width="2" stroke-linecap="round"/>
<defs>
<linearGradient id="paint0_linear_700_429" x1="78" y1="0" x2="78" y2="201" gradientUnits="userSpaceOnUse">
<stop stop-color="#91FF7F"/>
</linearGradient>
</defs>
</svg>
